<svg width="32" height="32" viewBox="0 0 32 32" fill="none" xmlns="http://www.w3.org/2000/svg">
<path d="M8.42732 17.3467C9.70732 17.3733 10.894 18.0133 11.694 19.1333C12.1848 19.8165 12.8316 20.3726 13.5807 20.7552C14.3298 21.1379 15.1595 21.3361 16.0007 21.3333C17.7207 21.3333 19.334 20.5067 20.3073 19.12C21.1073 18 22.294 17.36 23.574 17.3333C22.614 15.7067 18.774 14.6667 16.0007 14.6667C13.2407 14.6667 9.38732 15.7067 8.42732 17.3467ZM5.33398 17.3333C7.54732 17.3333 9.33398 15.5467 9.33398 13.3333C9.33398 11.12 7.54732 9.33333 5.33398 9.33333C3.12065 9.33333 1.33398 11.12 1.33398 13.3333C1.33398 15.5467 3.12065 17.3333 5.33398 17.3333ZM26.6673 17.3333C28.8807 17.3333 30.6673 15.5467 30.6673 13.3333C30.6673 11.12 28.8807 9.33333 26.6673 9.33333C24.454 9.33333 22.6673 11.12 22.6673 13.3333C22.6673 15.5467 24.454 17.3333 26.6673 17.3333ZM16.0007 13.3333C18.214 13.3333 20.0007 11.5467 20.0007 9.33333C20.0007 7.11999 18.214 5.33333 16.0007 5.33333C13.7873 5.33333 12.0007 7.11999 12.0007 9.33333C12.0007 11.5467 13.7873 13.3333 16.0007 13.3333Z" fill="#3D0072"/>
<path d="M28.0007 18.6667H23.6407C22.614 18.6667 21.8407 19.2667 21.4007 19.8933C21.3473 19.9733 19.5873 22.6667 16.0007 22.6667C14.094 22.6667 11.9607 21.8133 10.6007 19.8933C10.0807 19.16 9.26732 18.6667 8.36065 18.6667H4.00065C2.53398 18.6667 1.33398 19.8667 1.33398 21.3333V26.6667H10.6673V23.6533C12.2007 24.72 14.054 25.3333 16.0007 25.3333C17.9473 25.3333 19.8007 24.72 21.334 23.6533V26.6667H30.6673V21.3333C30.6673 19.8667 29.4673 18.6667 28.0007 18.6667Z" fill="#3D0072"/>
</svg>
