<svg width="32" height="32" viewBox="0 0 32 32" fill="none" xmlns="http://www.w3.org/2000/svg">
<path d="M11.0047 10.6707C12.294 10.6707 13.338 11.7147 13.338 13.004V25.6707C13.338 26.2895 13.0922 26.883 12.6546 27.3206C12.217 27.7582 11.6235 28.004 11.0047 28.004H4.99935C4.38051 28.004 3.78702 27.7582 3.34943 27.3206C2.91185 26.883 2.66602 26.2895 2.66602 25.6707V13.004C2.66602 11.7147 3.71135 10.6707 4.99935 10.6707H11.0047ZM8.33535 23.3307H7.66868C7.40347 23.3307 7.14911 23.436 6.96158 23.6236C6.77404 23.8111 6.66868 24.0655 6.66868 24.3307C6.66868 24.5959 6.77404 24.8502 6.96158 25.0378C7.14911 25.2253 7.40347 25.3307 7.66868 25.3307H8.33535C8.60056 25.3307 8.85492 25.2253 9.04246 25.0378C9.22999 24.8502 9.33535 24.5959 9.33535 24.3307C9.33535 24.0655 9.22999 23.8111 9.04246 23.6236C8.85492 23.436 8.60056 23.3307 8.33535 23.3307ZM28.3327 22C28.586 22.0001 28.8299 22.0963 29.0151 22.2693C29.2002 22.4423 29.3128 22.6791 29.33 22.9318C29.3473 23.1846 29.268 23.4345 29.1081 23.6311C28.9482 23.8276 28.7197 23.9561 28.4687 23.9907L28.3327 24L14.666 23.9973V21.9973H28.3327V22ZM24.3327 6.66667C25.6207 6.66667 26.666 7.712 26.666 9V19C26.666 19.6188 26.4202 20.2123 25.9826 20.6499C25.545 21.0875 24.9515 21.3333 24.3327 21.3333H14.666V12C14.6662 11.3272 14.4121 10.6792 13.9547 10.1859C13.4972 9.69263 12.8702 9.39046 12.1993 9.34L11.9993 9.33333L5.33268 9.332V9C5.33268 7.712 6.37802 6.66667 7.66602 6.66667H24.3327Z" fill="#3D0072"/>
</svg>
