<svg width="278" height="657" viewBox="0 0 278 657" fill="none" xmlns="http://www.w3.org/2000/svg">
<rect width="278" height="657" fill="#2563EB"/>
<circle cx="177" cy="365" r="8" fill="#124CC9"/>
<g opacity="0.4">
<path d="M134.215 102.065V39.3105" stroke="#1146BB" stroke-linecap="round" stroke-linejoin="round"/>
<path d="M175.172 105.759L175.086 86.9807L179.168 99.0622C179.168 99.0622 175.414 104.016 175.172 105.759Z" fill="#1146BB" stroke="#1146BB" stroke-linecap="round" stroke-linejoin="round"/>
<path d="M179.186 99.0701C179.186 99.0701 173.507 104.317 175.734 107.596C177.96 110.875 182.508 107.812 191.69 107.812C200.872 107.812 208.086 114.155 208.086 114.155V83.5454C208.086 83.5454 207.646 79.8347 201.752 77.6428C195.858 75.4508 181.196 77.2113 178.573 73.0518C175.95 68.8923 177.71 61.9023 177.71 61.9023C177.71 61.9023 172.903 71.5244 174.646 78.9545C176.39 86.3846 179.186 99.0701 179.186 99.0701Z" fill="white" stroke="#1146BB" stroke-linecap="round" stroke-linejoin="round"/>
<path d="M134.371 41.4414C137.025 43.9722 140.454 45.5348 144.105 45.877C158.776 47.5512 161.529 46.3862 168.518 47.9136C175.508 49.4411 179.228 55.5681 179.228 55.5681V99.07C179.228 99.07 177.045 92.5115 167.863 91.6313C158.681 90.751 150.379 91.4155 142.94 90.9754C135.502 90.5353 134.414 89.2495 134.414 89.2495L134.371 41.4414Z" fill="white" stroke="#1146BB" stroke-linecap="round" stroke-linejoin="round"/>
<path d="M178.231 87.8523V74.6144C177.791 73.9845 177.325 73.3545 176.833 72.7504L173.847 69.2123C173.198 68.4107 172.596 67.5722 172.044 66.7011C171.508 65.824 171.236 64.8117 171.258 63.7843C171.236 63.2285 171.42 62.6842 171.776 62.2568C171.972 62.0597 172.221 61.9256 172.494 61.8717C172.766 61.8179 173.048 61.8468 173.304 61.9548C173.892 62.0924 174.407 62.4468 174.745 62.9472C175.081 63.5011 175.302 64.1177 175.392 64.7594C175.519 65.5619 175.591 66.3721 175.608 67.1843L178.197 67.6244V60.5568C177.998 60.3238 177.774 60.0908 177.541 59.8664C176.615 59.0313 175.533 58.3889 174.356 57.9765V54.775L172.631 54.2227V57.4329C170.473 56.9151 168.747 57.0819 167.453 57.9334C166.158 58.7848 165.517 60.3411 165.528 62.602C165.513 63.6913 165.676 64.7758 166.012 65.8122C166.333 66.77 166.773 67.6834 167.323 68.5306C167.903 69.425 168.528 70.2891 169.196 71.1194L172.259 74.718C173.136 75.7192 173.913 76.8029 174.581 77.9541C175.153 78.9736 175.451 80.1245 175.444 81.2938C175.469 81.8337 175.324 82.3678 175.03 82.8212C174.753 83.2182 174.244 83.2958 173.494 83.0542C172.864 82.8656 172.311 82.4818 171.914 81.9582C171.46 81.3374 171.148 80.6245 171 79.8699C170.771 78.8436 170.644 77.7972 170.62 76.746L165.546 76.0038C165.521 78.5673 166.205 81.0879 167.522 83.2872C168.854 85.2465 170.805 86.7021 173.062 87.4208V90.7691L174.788 91.3128V87.9299C175.92 88.229 177.114 88.2021 178.231 87.8523Z" fill="#92E3A9"/>
<path d="M158.529 132.571C160.61 123.827 155.209 115.051 146.465 112.969C137.721 110.888 128.944 116.289 126.863 125.033C124.781 133.778 130.182 142.554 138.927 144.635C147.671 146.717 156.447 141.316 158.529 132.571Z" stroke="#1146BB" stroke-linecap="round" stroke-linejoin="round"/>
<path d="M51.1758 128.817H126.426" stroke="#1146BB" stroke-linecap="round" stroke-linejoin="round"/>
<path d="M-22.7773 128.817H51.1785" stroke="#1146BB" stroke-width="5" stroke-linecap="round" stroke-linejoin="round"/>
<path d="M65.793 123.76V134.245" stroke="#1146BB" stroke-linecap="round" stroke-linejoin="round"/>
<path d="M73.9102 123.76V134.245" stroke="#1146BB" stroke-linecap="round" stroke-linejoin="round"/>
<path d="M82.0195 123.76V134.245" stroke="#1146BB" stroke-linecap="round" stroke-linejoin="round"/>
<path d="M90.1289 123.76V134.245" stroke="#1146BB" stroke-linecap="round" stroke-linejoin="round"/>
<path d="M98.2422 123.76V134.245" stroke="#1146BB" stroke-linecap="round" stroke-linejoin="round"/>
<path d="M106.344 123.76V134.245" stroke="#1146BB" stroke-linecap="round" stroke-linejoin="round"/>
<path d="M142.699 37.292V112.542" stroke="#1146BB" stroke-linecap="round" stroke-linejoin="round"/>
<path d="M142.699 -36.6641V37.2917" stroke="#1146BB" stroke-width="5" stroke-linecap="round" stroke-linejoin="round"/>
<path d="M147.758 51.9092H137.273" stroke="#1146BB" stroke-linecap="round" stroke-linejoin="round"/>
<path d="M147.758 60.0215H137.273" stroke="#1146BB" stroke-linecap="round" stroke-linejoin="round"/>
<path d="M147.758 68.1338H137.273" stroke="#1146BB" stroke-linecap="round" stroke-linejoin="round"/>
<path d="M147.758 76.2461H137.273" stroke="#1146BB" stroke-linecap="round" stroke-linejoin="round"/>
<path d="M147.758 84.3574H137.273" stroke="#1146BB" stroke-linecap="round" stroke-linejoin="round"/>
<path d="M147.758 92.4688H137.273" stroke="#1146BB" stroke-linecap="round" stroke-linejoin="round"/>
<path d="M234.227 128.817H158.977" stroke="#1146BB" stroke-linecap="round" stroke-linejoin="round"/>
<path d="M308.182 128.817H234.227" stroke="#1146BB" stroke-width="5" stroke-linecap="round" stroke-linejoin="round"/>
<path d="M219.613 133.882V123.389" stroke="#1146BB" stroke-linecap="round" stroke-linejoin="round"/>
<path d="M211.496 133.882V123.389" stroke="#1146BB" stroke-linecap="round" stroke-linejoin="round"/>
<path d="M203.387 133.882V123.389" stroke="#1146BB" stroke-linecap="round" stroke-linejoin="round"/>
<path d="M195.273 133.882V123.389" stroke="#1146BB" stroke-linecap="round" stroke-linejoin="round"/>
<path d="M187.164 133.882V123.389" stroke="#1146BB" stroke-linecap="round" stroke-linejoin="round"/>
<path d="M179.051 133.882V123.389" stroke="#1146BB" stroke-linecap="round" stroke-linejoin="round"/>
<path d="M142.699 220.342V145.092" stroke="#1146BB" stroke-linecap="round" stroke-linejoin="round"/>
<path d="M142.699 294.299V220.343" stroke="#1146BB" stroke-width="5" stroke-linecap="round" stroke-linejoin="round"/>
<path d="M137.637 205.725H148.13" stroke="#1146BB" stroke-linecap="round" stroke-linejoin="round"/>
<path d="M137.637 197.612H148.13" stroke="#1146BB" stroke-linecap="round" stroke-linejoin="round"/>
<path d="M137.637 189.5H148.13" stroke="#1146BB" stroke-linecap="round" stroke-linejoin="round"/>
<path d="M137.637 181.389H148.13" stroke="#1146BB" stroke-linecap="round" stroke-linejoin="round"/>
<path d="M137.637 173.277H148.13" stroke="#1146BB" stroke-linecap="round" stroke-linejoin="round"/>
<path d="M137.637 165.174H148.13" stroke="#1146BB" stroke-linecap="round" stroke-linejoin="round"/>
<path d="M142.703 -51.8525C42.9183 -51.8525 -37.9844 29.0674 -37.9844 128.817C-37.9844 228.567 42.9183 309.53 142.703 309.53C242.487 309.53 323.372 228.645 323.372 128.86C323.372 29.076 242.478 -51.8525 142.703 -51.8525ZM142.703 283.632C112.083 283.632 82.151 274.553 56.6917 257.541C31.2325 240.53 11.3894 216.351 -0.328178 188.062C-12.0458 159.774 -15.1116 128.645 -9.13805 98.6141C-3.16447 68.5829 11.5802 40.9975 33.2316 19.3462C54.8829 -2.30516 82.4683 -17.0499 112.5 -23.0235C142.531 -28.9971 173.659 -25.9312 201.948 -14.2136C230.237 -2.49599 254.415 17.3471 271.427 42.8063C288.438 68.2656 297.518 98.1975 297.518 128.817C297.519 149.148 293.515 169.281 285.736 188.065C277.956 206.849 266.553 223.917 252.177 238.294C237.8 252.67 220.733 264.075 201.95 271.856C183.166 279.636 163.034 283.641 142.703 283.641V283.632Z" fill="#1146BB"/>
</g>
</svg>
