<svg width="278" height="657" viewBox="0 0 278 657" fill="none" xmlns="http://www.w3.org/2000/svg">
<rect width="278" height="657" fill="#F59E0B"/>
<g opacity="0.2">
<path d="M11.9003 85.2077C12.8375 81.7101 9.95435 79.9194 6.64124 82.0938C3.83629 83.9262 1.75156 88.2809 1.17699 89.5616L1.87929 89.8192C4.33456 89.4358 11.1741 88.0906 11.9003 85.2077Z" fill="#BABABA"/>
<path d="M-43.3747 130.76C-43.0628 131.183 -42.6661 131.536 -42.21 131.797C-41.7538 132.058 -41.2483 132.22 -40.7257 132.275C-40.2031 132.329 -39.6749 132.274 -39.1749 132.112C-38.6748 131.951 -38.2139 131.687 -37.8217 131.338C-35.5063 129.174 -36.3304 123.584 -37.5387 121.07C-37.6258 120.877 -39.1822 118.424 -39.6057 117.817C-37.6564 118.717 -35.7325 119.626 -33.8696 120.619C-31.3413 121.927 -28.9017 123.4 -26.5667 125.028C-26.7012 125.185 -30.1783 129.267 -30.841 131.596C-31.3848 133.625 -31.5642 136.339 -30.211 138.082C-29.8991 138.505 -29.5024 138.858 -29.0463 139.119C-28.5902 139.38 -28.0846 139.542 -27.562 139.597C-27.0394 139.651 -26.5112 139.596 -26.0112 139.435C-25.5111 139.273 -25.0503 139.009 -24.658 138.66C-22.3426 136.496 -23.1667 130.906 -24.375 128.392C-24.4674 128.19 -26.1363 125.552 -26.4755 125.091C-26.3398 125.189 -26.1912 125.268 -26.0555 125.366C-23.774 127.059 -21.6485 128.953 -19.7042 131.024C-18.6171 132.149 -17.6423 133.289 -16.7558 134.414C-17.4813 135.106 -20.7669 138.329 -21.589 140.361C-22.4112 142.393 -22.8328 145.003 -21.6861 146.884C-21.4232 147.338 -21.0682 147.732 -20.644 148.041C-20.2197 148.35 -19.7355 148.567 -19.2225 148.677C-18.7095 148.788 -18.1791 148.79 -17.6652 148.683C-17.1514 148.577 -16.6656 148.364 -16.2389 148.058C-13.693 146.156 -13.8999 140.509 -14.8134 137.873C-14.8669 137.727 -15.541 136.328 -16.0408 135.315C-15.6301 135.826 -15.2017 136.357 -14.8179 136.854C-13.3804 138.743 -12.1837 140.552 -11.1355 142.167C-10.5512 143.095 -10.0646 143.928 -9.56304 144.733C-9.92039 145.779 -11.3038 150.021 -11.0957 152.151C-10.8875 154.282 -10.032 156.817 -8.13717 157.95C-7.69334 158.233 -7.19563 158.42 -6.67558 158.5C-6.15553 158.581 -5.62448 158.552 -5.11607 158.416C-4.60765 158.281 -4.13294 158.041 -3.72206 157.712C-3.31117 157.383 -2.97306 156.973 -2.72912 156.507C-1.34596 153.676 -4.16059 148.78 -6.20853 146.866C-6.38831 146.702 -9.46433 144.451 -9.48309 144.492L-9.50045 144.557C-9.93385 143.785 -10.4133 142.955 -10.9531 142.062C-11.9719 140.424 -13.1066 138.585 -14.5326 136.652L-15.0184 135.99C-15.5196 135.701 -15.8112 135.523 -15.8112 135.523C-15.8112 135.523 -15.6926 135.455 -15.4885 135.355C-16.6212 133.825 -17.9064 132.231 -19.3458 130.665C-21.2697 128.526 -23.3821 126.563 -25.6574 124.801C-25.6574 124.801 -25.7222 124.784 -25.751 124.776C-24.8798 125.094 -22.4173 125.893 -22.2048 125.935C-19.4349 126.507 -13.7332 125.983 -12.1327 123.234C-11.8819 122.777 -11.7313 122.272 -11.691 121.752C-11.6506 121.232 -11.7214 120.709 -11.8987 120.219C-12.0759 119.729 -12.3555 119.282 -12.719 118.908C-13.0824 118.534 -13.5212 118.241 -14.0064 118.05C-16.0805 117.155 -18.6927 117.952 -20.5551 118.972C-22.6528 120.122 -25.7618 124.241 -26.0113 124.568C-28.375 122.827 -30.8536 121.248 -33.4301 119.842C-34.9216 119.018 -36.4685 118.256 -38.0037 117.451C-37.2453 117.701 -36.5837 117.909 -36.4666 117.933C-33.6948 118.498 -27.9951 117.981 -26.3946 115.232C-26.1415 114.776 -25.9889 114.271 -25.9469 113.751C-25.905 113.231 -25.9748 112.708 -26.1515 112.217C-26.3283 111.727 -26.608 111.279 -26.9718 110.906C-27.3357 110.532 -27.7753 110.24 -28.2611 110.05C-30.3352 109.155 -32.9546 109.949 -34.817 110.97C-36.6793 111.99 -39.4234 115.467 -40.1257 116.389L-41.9128 115.517C-44.3652 114.335 -46.8124 113.163 -49.2101 111.95L-49.3773 113.293C-47.0716 114.389 -44.7347 115.455 -42.3958 116.514C-41.508 116.913 -40.6312 117.326 -39.7472 117.74C-40.0274 118.066 -43.3411 121.999 -43.9884 124.271C-44.5701 126.298 -44.7279 129.017 -43.3747 130.76Z" fill="#BABABA"/>
<path d="M2.92707 90.6008C5.18034 91.3743 7.20461 92.2252 8.98085 92.9942C9.98912 93.4341 10.8947 93.8542 11.7283 94.2549C12.0141 95.3188 13.2236 99.5843 14.5875 101.23C15.9514 102.876 18.0707 104.524 20.3096 104.429C20.8348 104.427 21.3537 104.315 21.8331 104.1C22.3125 103.886 22.7419 103.573 23.0939 103.184C23.4458 102.794 23.7126 102.335 23.8772 101.836C24.0418 101.337 24.1006 100.81 24.0498 100.287C23.625 97.1804 18.5293 94.6657 15.7377 94.2031C15.5002 94.1395 11.6519 93.9645 11.66 94.0206L11.6805 94.0879C10.8795 93.6804 10.0138 93.2556 9.05976 92.8148C7.29509 92.0026 5.2896 91.1104 3.03543 90.2827C2.66366 90.1446 2.2703 90.0006 1.8822 89.8658C1.35131 89.9472 1.02347 89.9905 1.02347 89.9905C1.67501 90.1496 2.32937 90.3558 2.92707 90.6008Z" fill="#BABABA"/>
<path d="M-41.1014 90.1494C-37.9555 89.7505 -34.7735 89.2456 -31.6045 88.7604C-30.6387 88.6103 -29.6676 88.4695 -28.6966 88.3286C-28.7489 88.7542 -29.3419 93.8172 -28.6098 96.065C-27.9619 98.0512 -26.5753 100.39 -24.4583 101.096C-23.9672 101.279 -23.4436 101.358 -22.9205 101.328C-22.3974 101.298 -21.8861 101.16 -21.4189 100.923C-20.9517 100.686 -20.5386 100.355 -20.2059 99.9499C-19.8732 99.5451 -19.6279 99.0758 -19.4856 98.5715C-18.7439 95.5153 -22.561 91.3378 -24.9786 89.911C-25.1646 89.7994 -27.8373 88.6051 -28.5305 88.3422C-26.3945 88.0275 -24.2642 87.7344 -22.1447 87.5388C-19.2979 87.2478 -16.4353 87.1414 -13.5748 87.2203C-13.6249 87.4074 -14.2686 92.6882 -13.4881 94.9567C-12.8382 96.9358 -11.4464 99.2833 -9.33649 99.9875C-8.84508 100.17 -8.32115 100.249 -7.79766 100.22C-7.27417 100.19 -6.76244 100.053 -6.29469 99.8159C-5.82695 99.579 -5.4133 99.2479 -5.07977 98.8433C-4.74623 98.4388 -4.50005 97.9695 -4.35668 97.4652C-3.6221 94.407 -7.432 90.2315 -9.85678 88.8027C-10.0429 88.6911 -12.9237 87.4101 -13.4591 87.2204C-13.2983 87.2249 -13.1246 87.2098 -12.9566 87.2162C-10.0945 87.3758 -7.25183 87.7864 -4.46154 88.4435C-2.91659 88.7803 -1.46148 89.1933 -0.0572594 89.6236C-0.277742 90.5904 -1.23283 95.0472 -0.795304 97.1853C-0.357774 99.3234 0.746054 101.71 2.76542 102.636C3.23599 102.872 3.75038 103.007 4.27597 103.033C4.80155 103.06 5.32688 102.977 5.81867 102.789C6.31047 102.602 6.758 102.315 7.1329 101.945C7.50781 101.576 7.8019 101.133 7.99656 100.644C9.07465 97.6857 5.75236 93.1009 3.52319 91.4314C3.39996 91.3444 2.04706 90.55 1.05332 89.9983L1.21693 89.6179C-0.511507 89.016 -2.3254 88.4451 -4.32321 87.956C-7.13323 87.2288 -10.0021 86.7517 -12.8963 86.5305L-12.9899 86.5054C-12.0845 86.2929 -9.57174 85.6087 -9.38256 85.536C-6.74269 84.4924 -2.23918 80.9555 -2.42693 77.8276C-2.47939 77.308 -2.64053 76.8052 -2.89988 76.3519C-3.15924 75.8986 -3.51102 75.5049 -3.93239 75.1963C-4.35376 74.8877 -4.8353 74.6712 -5.34576 74.5608C-5.85622 74.4504 -6.38419 74.4486 -6.89541 74.5554C-9.1011 74.9286 -10.8913 77.0328 -11.911 78.8807C-13.0269 80.9728 -13.3387 86.0803 -13.3637 86.4901C-16.3182 86.3372 -19.2795 86.3785 -22.2285 86.6139C-23.953 86.7457 -25.6838 86.9298 -27.4113 87.1303C-26.6379 86.921 -25.9447 86.7519 -25.8515 86.6921C-23.2045 85.6504 -18.7082 82.1116 -18.8959 78.9837C-18.9487 78.465 -19.1099 77.9632 -19.3689 77.5107C-19.6279 77.0582 -19.979 76.6651 -20.3996 76.3568C-20.8201 76.0486 -21.3006 75.832 -21.8101 75.7212C-22.3196 75.6104 -22.8466 75.6077 -23.3572 75.7134C-25.5701 76.0847 -27.3512 78.1836 -28.3728 80.0387C-29.3944 81.8939 -29.7336 86.2689 -29.8108 87.4207C-30.4737 87.5053 -31.1346 87.5827 -31.7956 87.6602C-34.9924 88.0763 -38.157 88.5164 -41.2836 88.8433C-41.9499 88.9116 -42.6122 88.9656 -43.2674 89.0214L-43.797 90.4221C-42.8831 90.3508 -41.9961 90.2645 -41.1014 90.1494Z" fill="#BABABA"/>
<path d="M185.641 148.922L182.671 148.636L181.542 151.727L183.979 153.398C183.794 154.461 183.743 155.543 183.826 156.619L181.26 158.076L182.114 161.252L185.051 161.229C185.515 162.206 186.099 163.122 186.789 163.954L185.523 166.608L188.041 168.725L190.435 167.014C191.376 167.545 192.38 167.957 193.424 168.239L193.906 171.16L197.185 171.445L198.179 168.626C199.24 168.519 200.283 168.28 201.285 167.916L203.392 170.069L206.239 168.426L205.417 165.506C206.787 164.316 207.895 162.856 208.672 161.218L211.743 161.269L212.596 158.088L209.91 156.597C209.992 155.555 209.947 154.507 209.774 153.476L212.347 151.735L211.224 148.642L208.13 148.963C207.604 148.072 206.973 147.247 206.25 146.507L207.362 143.597L204.666 141.71L202.326 143.736C201.661 143.433 200.971 143.186 200.264 142.998C199.962 142.917 199.667 142.838 199.372 142.759L198.628 139.776L195.343 139.775L194.59 142.728C193.556 142.919 192.548 143.232 191.587 143.658L189.28 141.675L186.592 143.562L187.567 146.399M198.87 163.574C197.126 164.02 195.284 163.879 193.628 163.174C191.972 162.469 190.595 161.238 189.708 159.672C188.821 158.106 188.475 156.291 188.722 154.509C188.969 152.726 189.796 151.074 191.075 149.808C192.354 148.542 194.015 147.733 195.8 147.505C197.585 147.276 199.396 147.642 200.952 148.545C202.509 149.448 203.725 150.839 204.413 152.502C205.101 154.165 205.222 156.008 204.758 157.747C204.657 158.128 204.526 158.5 204.367 158.861M202.755 161.306C202.255 161.825 201.689 162.275 201.07 162.644" stroke="black" stroke-miterlimit="10"/>
<path d="M21.5376 112.988L18.5677 112.701L17.4385 115.793L19.8755 117.464C19.6906 118.527 19.639 119.609 19.7219 120.685L17.1564 122.142L18.0103 125.317L20.9378 125.33C21.4016 126.308 21.9854 127.223 22.6757 128.056L21.4093 130.71L23.9274 132.827L26.3122 131.152C27.2534 131.683 28.2573 132.094 29.3006 132.377L29.7828 135.298L33.0618 135.583L34.0562 132.764C35.1175 132.66 36.1612 132.421 37.1621 132.053L39.2693 134.207L42.1163 132.563L41.2943 129.643C42.6636 128.454 43.7718 126.994 44.549 125.355L47.6204 125.407L48.4727 122.226L45.787 120.735C45.8695 119.693 45.824 118.645 45.6515 117.614L48.2078 115.846L47.0851 112.753L43.9911 113.073C43.4656 112.182 42.8345 111.358 42.1113 110.618L43.223 107.707L40.5276 105.82L38.1875 107.846C37.5217 107.544 36.8319 107.297 36.1252 107.109C35.8229 107.028 35.5278 106.949 35.2328 106.87L34.4896 103.886L31.204 103.885L30.4513 106.838C29.4174 107.03 28.4095 107.342 27.4483 107.769L25.1211 105.803L22.4327 107.69L23.4842 110.502M34.787 127.676C33.0434 128.122 31.2015 127.981 29.5457 127.276C27.8899 126.571 26.5123 125.34 25.6255 123.774C24.7388 122.208 24.3922 120.394 24.6392 118.611C24.8863 116.828 25.7133 115.177 26.9926 113.911C28.2718 112.645 29.9322 111.835 31.7173 111.607C33.5025 111.379 35.3132 111.744 36.8699 112.647C38.4266 113.55 39.6427 114.941 40.3305 116.604C41.0182 118.267 41.1395 120.11 40.6754 121.849C40.5741 122.23 40.4434 122.603 40.2844 122.963M38.6728 125.408C38.1728 125.927 37.6061 126.377 36.9876 126.746" stroke="black" stroke-miterlimit="10"/>
<path d="M213.595 180.987L212.389 181.111C212.236 180.846 212.067 180.585 211.896 180.331M210.74 178.887C210.669 178.807 210.596 178.733 210.524 178.66L211.628 175.747L208.94 173.862L206.6 175.888C205.935 175.583 205.246 175.334 204.539 175.143C204.237 175.062 203.942 174.983 203.647 174.904L202.906 171.913L199.618 171.919L198.83 174.863C197.792 175.049 196.781 175.361 195.819 175.792L193.519 173.81L190.824 175.695L191.883 178.509C191.129 179.264 190.47 180.108 189.921 181.022L186.951 180.735L185.831 183.821L188.266 185.5C188.079 186.562 188.025 187.644 188.105 188.719L185.549 190.171L186.396 193.344L189.323 193.357C189.789 194.333 190.373 195.249 191.061 196.083L189.802 198.738L192.32 200.855L194.722 199.146C195.662 199.674 196.663 200.084 197.703 200.369L198.192 203.293L201.464 203.575L202.458 200.757C203.521 200.648 204.567 200.41 205.572 200.048L207.672 202.2L210.519 200.556L209.697 197.636C211.071 196.452 212.18 194.99 212.951 193.348L216.023 193.4L216.873 190.226L214.187 188.735C214.266 187.693 214.221 186.645 214.052 185.614L216.626 183.866L215.501 180.78L214.549 180.88M197.447 195.079C196.954 194.832 196.488 194.534 196.057 194.19M195.102 193.294C193.769 191.84 193.005 189.955 192.95 187.984C192.894 186.013 193.552 184.088 194.801 182.562C196.05 181.036 197.808 180.012 199.751 179.678C201.695 179.343 203.693 179.72 205.381 180.74C207.069 181.76 208.332 183.355 208.939 185.231C209.546 187.107 209.457 189.139 208.687 190.955C207.916 192.77 206.518 194.247 204.747 195.114C202.976 195.982 200.951 196.181 199.045 195.677C198.853 195.625 198.659 195.573 198.462 195.521" stroke="black" stroke-miterlimit="10"/>
<path d="M166.551 -35.0707L162.245 -38.7775L157.212 -35.2513L159.191 -30.0005C157.778 -28.5888 156.546 -27.0069 155.523 -25.2911L149.977 -25.8362L147.874 -20.0594L152.435 -16.9321C152.088 -14.9439 151.991 -12.9201 152.147 -10.908L147.356 -8.19636L148.944 -2.26357L154.439 -2.33378C155.312 -0.503799 156.407 1.21174 157.699 2.7741L155.343 7.73512L160.046 11.6872L164.526 8.49863C166.28 9.4802 168.149 10.2401 170.09 10.7609L171.003 16.2197L177.123 16.7564L178.978 11.4996C180.96 11.2952 182.91 10.8517 184.786 10.1786L188.723 14.1955L194.043 11.1241L192.506 5.66027C195.074 3.44642 197.146 0.71634 198.587 -2.35197L204.334 -2.26974L205.925 -8.20689L200.88 -11.0243C201.021 -12.9574 200.93 -14.9004 200.61 -16.812L205.418 -20.0746L203.316 -25.8443L197.534 -25.2494C196.55 -26.9118 195.373 -28.4519 194.027 -29.8373L196.101 -35.2748L191.067 -38.7987L186.69 -35.012C185.446 -35.5811 184.156 -36.0452 182.835 -36.3998C182.274 -36.5502 181.714 -36.6771 181.155 -36.7804L179.74 -42.3814L173.57 -42.384L172.16 -36.8613C170.7 -36.6001 169.266 -36.21 167.875 -35.6954M191.79 -14.0616C191.844 -13.3543 191.849 -12.6441 191.807 -11.936M191.115 -8.20302C189.976 -4.62244 187.562 -1.58492 184.331 0.332369C181.099 2.24966 177.276 2.91313 173.588 2.19669C169.9 1.48025 166.603 -0.566154 164.324 -3.55369C162.046 -6.54123 160.944 -10.2617 161.229 -14.0082C161.513 -17.7547 163.164 -21.2661 165.868 -23.8753C168.571 -26.4844 172.139 -28.0095 175.893 -28.1607C179.648 -28.3119 183.327 -27.0786 186.231 -24.6953C189.136 -22.312 191.064 -18.9447 191.649 -15.2332" stroke="black" stroke-miterlimit="10"/>
<path d="M162.15 45.2407L167.527 40.3721" stroke="#263238" stroke-width="3" stroke-linecap="round" stroke-linejoin="round"/>
<path d="M170.837 58.5301L172.52 57.3457" stroke="#263238" stroke-width="3" stroke-linecap="round" stroke-linejoin="round"/>
<path d="M141.938 32.3661L148.254 21" stroke="#263238" stroke-width="3" stroke-linecap="round" stroke-linejoin="round"/>
<path d="M49.404 78.148C49.429 78.0583 49.465 77.9721 49.5113 77.8914C49.6598 77.6302 49.9053 77.4382 50.1944 77.3571C50.9496 77.1583 51.3562 77.0513 54.0256 81.0215C51.7719 73.3986 52.1245 72.7449 52.3202 72.3886C52.4885 72.1135 52.7516 71.9097 53.06 71.8155C54.2654 71.4906 54.505 71.4314 61.1746 86.2075C60.4358 83.927 59.6247 81.5423 58.9102 79.4302C54.6506 66.8579 53.5173 62.9984 54.2489 61.6209C54.3371 61.4539 54.4585 61.3067 54.6056 61.1882C54.7527 61.0698 54.9225 60.9827 55.1045 60.9323C56.4007 60.5854 56.4007 60.5854 62.912 77.6794L64.1961 81.0625C63.5385 79.1123 62.8574 77.1635 62.2333 75.3764C57.5887 62.053 55.6532 56.0349 56.5998 54.2291C56.6987 54.0406 56.8368 53.8756 57.0049 53.745C57.1729 53.6144 57.367 53.5213 57.574 53.472C58.9831 53.0782 59.2951 53.0076 67.863 77.6254L59.3697 45.9931C59.2993 45.7128 59.3417 45.416 59.4878 45.1667C59.634 44.9173 59.8722 44.7353 60.1512 44.6598C61.1152 44.4013 62.0368 45.0494 63.2481 47.4951C62.2792 43.8571 62.0421 41.8344 62.4918 40.9908C62.5851 40.8151 62.7126 40.6599 62.8668 40.5343C63.021 40.4087 63.1988 40.3153 63.3897 40.2595C64.5861 39.9398 65.4815 40.4266 68.5633 49.4207C65.7538 40.245 65.0844 36.9572 65.6534 35.8987C65.7379 35.7413 65.8535 35.6028 65.9934 35.4918C66.1332 35.3807 66.2943 35.2994 66.4667 35.2527C67.5071 34.9684 67.6998 35.5446 68.4104 37.671L69.942 42.3468L72.2471 49.4899C70.5612 41.8494 71.0687 40.9055 71.3558 40.3808C71.4496 40.2033 71.5782 40.0465 71.7341 39.9199C71.8899 39.7934 72.0698 39.6996 72.2628 39.6443C72.5422 39.5769 72.8368 39.6197 73.0855 39.7639C73.3341 39.9081 73.5177 40.1425 73.5979 40.4185C80.4603 64.8956 91.8087 102.885 96.3454 112.523C94.8831 103.732 86.6102 76.401 81.8752 60.8242C75.7951 40.7682 75.8379 40.6948 76.2178 40.0253C76.2911 39.8855 76.3918 39.762 76.514 39.6622C76.6361 39.5624 76.7773 39.4883 76.9288 39.4444C78.0925 39.1315 78.7325 39.3338 81.1494 47.3553C80.5082 43.7896 80.3981 41.5233 80.8608 40.66C80.962 40.471 81.101 40.3049 81.2693 40.1722C81.4376 40.0394 81.6315 39.9428 81.8389 39.8885C82.115 39.8148 82.4088 39.8504 82.6593 39.9879C82.9098 40.1255 83.0976 40.3543 83.1837 40.6268C91.0519 65.5816 102.246 100.722 107.093 115.133C106.27 111.265 104.911 106.002 103.228 100.106C101.688 95.2891 99.9209 89.5937 97.8816 82.869C95.1793 73.9843 92.5432 65.0248 90.3752 57.5714C84.752 39.4658 84.8453 39.2903 85.2349 38.5848C85.3105 38.4456 85.4129 38.3229 85.5361 38.2235C85.6594 38.1242 85.8011 38.0502 85.9531 38.0059C86.2325 37.9385 86.5272 37.9813 86.7758 38.1255C87.0245 38.2697 87.208 38.5041 87.2883 38.7801C88.8094 44.1859 90.518 50.1587 92.3256 56.3662L93.3439 59.6473C89.9428 46.7496 88.7997 39.8176 89.7338 38.1165C89.8313 37.917 89.9701 37.7405 90.1411 37.5988C90.312 37.4571 90.5112 37.3534 90.7253 37.2946C92.0561 36.9338 93.2697 38.2772 96.309 47.5452C94.5706 41.6262 94.1893 39.3643 94.6275 38.5638C94.7081 38.4104 94.8195 38.2752 94.9547 38.1668C95.0899 38.0583 95.2461 37.979 95.4134 37.9337C96.3193 37.6905 97.0726 37.499 99.4824 43.7907C98.8029 40.5697 98.7001 38.6215 99.1383 37.821C99.2324 37.6381 99.3633 37.4767 99.5229 37.3469C99.6824 37.2171 99.8672 37.1217 100.065 37.0668C100.209 37.0275 100.358 37.0174 100.505 37.0369C100.652 37.0565 100.794 37.1053 100.922 37.1806C101.177 37.3303 101.364 37.5741 101.442 37.8598C108.462 64.7703 120.015 105.769 125.615 118.808C122.259 105.252 111.869 67.5728 104.484 41.2435C104.445 41.1014 104.434 40.9529 104.452 40.8065C104.47 40.6602 104.517 40.5188 104.59 40.3907C104.663 40.2626 104.761 40.1502 104.878 40.06C104.994 39.9698 105.128 39.9036 105.27 39.8652C105.497 39.8077 105.734 39.7971 105.965 39.8339C106.197 39.8708 106.418 39.9543 106.617 40.0794C107.422 40.7246 108.067 41.5468 108.503 42.4822C108.268 40.6223 108.317 39.4321 108.647 38.834C108.749 38.6479 108.888 38.4846 109.056 38.3543C109.223 38.2241 109.416 38.1297 109.621 38.0769C110.91 37.7281 111.442 39.1973 112.244 41.4174C112.829 43.1171 113.629 45.5143 114.651 48.8423C116.55 55.0515 118.999 63.5289 121.584 72.5056C124.496 82.5956 127.956 94.5834 130.912 104.161C125.536 83.9233 116.803 51.9798 112.599 36.6378C112.523 36.3484 112.564 36.0411 112.712 35.7813C112.785 35.6538 112.883 35.5421 113 35.4528C113.116 35.3635 113.25 35.2985 113.392 35.2614C114.504 34.9657 114.829 34.8753 118.276 46.019C117.226 41.7344 116.973 39.1368 117.576 38.0101C117.684 37.7958 117.836 37.6065 118.021 37.4543C118.207 37.3022 118.422 37.1905 118.654 37.1264C120.084 36.7385 120.084 36.7385 125.498 56.7472C128.001 66.0026 130.996 77.0483 133.98 87.2732C136.909 95.972 139.089 102.75 140.505 107.827C141.418 110.535 142.532 113.172 143.837 115.715C142.208 105.645 130.258 64.4014 122.311 38.2145C122.224 37.9312 122.252 37.6246 122.39 37.3622C122.529 37.0999 122.765 36.9032 123.049 36.8154C123.332 36.7277 123.639 36.7561 123.901 36.8944C124.163 37.0327 124.36 37.2695 124.448 37.5528L127.014 45.7069C125.599 39.1572 125.681 36.8651 126.141 36.0397C126.242 35.8515 126.381 35.6862 126.549 35.5546C126.717 35.423 126.911 35.3279 127.117 35.2754C127.394 35.1998 127.688 35.2346 127.939 35.3724C128.19 35.5101 128.378 35.7401 128.462 36.0137L134.184 53.9836C130.461 39.5498 130.985 38.6026 131.309 38.0261C131.392 37.8718 131.505 37.7358 131.641 37.6266C131.778 37.5173 131.935 37.4371 132.104 37.3907C132.382 37.3206 132.675 37.3597 132.925 37.4997C133.174 37.6397 133.36 37.8701 133.445 38.1433C139.11 56.9852 147.429 83.8272 152.912 99.6659C149.574 87.1633 144.538 68.8832 140.981 56.0209L137.103 41.7073C136.234 38.5282 135.807 36.9867 135.638 36.1778L135.573 35.9598C135.468 35.3997 135.537 35.2869 135.651 35.0937C135.759 34.9051 135.921 34.7524 136.115 34.6542C136.309 34.556 136.528 34.5167 136.744 34.5411C136.96 34.5654 137.165 34.6524 137.332 34.7914C137.5 34.9303 137.623 35.1151 137.687 35.3231C143.694 55.3057 152.887 84.9039 157.707 98.3514C155.827 91.3763 152.493 80.8184 149.795 72.3205C142.291 48.5121 140.219 41.3314 141.146 39.659C141.232 39.4995 141.349 39.359 141.491 39.2459C141.632 39.1327 141.795 39.0493 141.97 39.0006C142.874 38.7646 143.515 38.5892 146.576 46.6523C146.257 44.592 146.281 43.2641 146.648 42.5836C146.75 42.3906 146.89 42.2201 147.059 42.0826C147.229 41.9451 147.424 41.8432 147.634 41.7833C147.911 41.7142 148.203 41.7528 148.453 41.8912C148.702 42.0296 148.889 42.2575 148.977 42.5288C153.774 58.0451 161.465 81.7337 165.025 90.1232C163.681 83.253 158.69 67.708 155.786 58.5687C151.076 43.6466 151.002 43.1176 151.421 42.3584C151.496 42.2186 151.598 42.0952 151.721 41.9957C151.845 41.8962 151.987 41.8227 152.14 41.7795C153.28 41.468 154.293 41.1995 159.527 55.9768C158.961 54.1745 158.369 52.3266 157.764 50.4369C157.692 50.2747 157.658 50.0982 157.664 49.9208C157.67 49.7433 157.717 49.5696 157.8 49.4128C157.872 49.28 157.97 49.1635 158.089 49.0706C158.209 48.9778 158.346 48.9106 158.492 48.8732C160.03 48.4599 160.877 49.8748 165.245 60.4321C165.322 60.2806 165.43 60.147 165.562 60.0403C165.695 59.9335 165.848 59.8558 166.012 59.8125C166.296 59.7455 166.595 59.7915 166.846 59.9407C167.097 60.0899 167.279 60.3307 167.356 60.6122C167.413 60.8439 167.399 61.0873 167.315 61.3109C167.671 62.6264 168.096 63.9221 168.589 65.1926C170.117 69.3659 170.441 70.5172 170.031 71.3254C169.95 71.4828 169.837 71.6217 169.7 71.7335C169.562 71.8453 169.403 71.9276 169.232 71.9752C167.987 72.3048 167.469 71.6491 164.485 64.5326C165.06 66.4453 165.658 68.418 166.237 70.4013C171.955 89.7663 171.307 90.9735 170.91 91.7078C170.827 91.8704 170.71 92.0138 170.568 92.1284C170.425 92.2431 170.26 92.3266 170.084 92.3734C169.807 92.4443 169.514 92.4065 169.264 92.2679C169.014 92.1293 168.827 91.9003 168.741 91.6279C165.878 82.1604 162.683 72.2644 159.865 63.9272C165.95 83.1592 168.462 92.2937 167.305 94.367C167.21 94.5484 167.079 94.7083 166.92 94.8369C166.761 94.9654 166.577 95.0598 166.38 95.1141C165.009 95.4796 164.013 95.7448 155.146 69.0183L153.862 65.1726C155.515 70.5209 157.295 75.9654 158.739 80.3632C164.291 97.47 165.047 100.203 164.493 101.234C164.413 101.375 164.306 101.497 164.178 101.596C164.049 101.694 163.903 101.765 163.746 101.805C163.47 101.879 163.176 101.843 162.926 101.706C162.675 101.568 162.487 101.34 162.401 101.067C157.196 84.5698 149.303 60.3952 144.826 48.2891C146.585 54.6224 149.452 63.6978 151.947 71.6013C159.888 96.6603 162.155 104.75 161.152 106.594C161.062 106.759 160.941 106.905 160.794 107.022C160.647 107.139 160.479 107.225 160.298 107.276C159.243 107.556 158.493 107.764 153.492 93.0106C158.968 113.275 158.777 113.586 158.499 114.106C158.425 114.237 158.326 114.352 158.207 114.445C158.088 114.537 157.952 114.606 157.807 114.645C156.369 115.031 155.318 115.297 143.041 76.5424C142.145 73.7261 141.258 70.9046 140.399 68.1214C144.633 83.294 149.979 101.456 154.194 115.259C154.237 115.403 154.25 115.554 154.234 115.703C154.218 115.852 154.172 115.997 154.1 116.128C153.952 116.392 153.706 116.587 153.415 116.67C152.386 116.942 152.042 116.039 151.709 115.094C151.502 114.514 151.205 113.663 150.848 112.549C150.156 110.497 149.126 107.46 147.858 103.557C145.71 96.9803 142.747 87.802 139.048 76.2747C135.49 65.1707 131.908 53.9833 129.48 46.3213C131.734 56.1888 137.103 75.6456 149.116 113.574C150.838 119.034 150.838 119.034 150.617 119.484C150.544 119.617 150.445 119.733 150.326 119.827C150.207 119.921 150.07 119.99 149.923 120.03C149.391 120.173 149.092 120.255 148.553 119.185C147.854 117.764 146.75 114.398 144.255 106.726C146.849 117.34 146.409 118.148 146.115 118.67C146.034 118.824 145.923 118.959 145.788 119.068C145.652 119.176 145.496 119.255 145.329 119.301C144.548 119.508 143.71 119.384 142.484 117.512C142.509 118.127 142.392 118.74 142.143 119.303C142.031 119.525 141.874 119.72 141.681 119.877C141.489 120.035 141.266 120.15 141.027 120.215C139.596 120.603 138.866 120.793 131.109 95.7985C138.155 121.952 138.037 122.16 137.749 122.661C137.676 122.79 137.579 122.903 137.462 122.994C137.345 123.084 137.211 123.15 137.068 123.188C135.68 123.588 134.825 121.97 133.395 118.27C132.49 115.891 131.344 112.568 129.936 108.149C134.419 122.826 135.201 126.413 134.626 127.463C134.545 127.611 134.435 127.742 134.302 127.847C134.169 127.952 134.017 128.029 133.853 128.073C133.712 128.113 133.563 128.123 133.417 128.104C133.271 128.085 133.131 128.036 133.004 127.961C132.875 127.888 132.762 127.789 132.672 127.671C132.581 127.552 132.516 127.417 132.479 127.273C130.286 118.818 127.982 110.202 125.669 101.853L122.949 93.1185C117.587 75.9389 113.773 63.4319 111.412 54.7391C110.417 51.9193 109.509 49.4932 108.716 47.5298C110.881 55.2832 114.555 68.4855 118.154 81.6829C129.569 123.308 129.271 123.814 128.908 124.45C128.834 124.581 128.735 124.696 128.616 124.789C128.497 124.881 128.361 124.95 128.216 124.989C128.004 125.044 127.783 125.055 127.567 125.022C127.35 124.99 127.142 124.913 126.956 124.798C126.316 124.399 125.803 123.826 125.478 123.145C126.048 125.943 126.137 127.625 125.752 128.34C125.66 128.514 125.533 128.668 125.38 128.791C125.226 128.914 125.049 129.005 124.858 129.057C123.711 129.367 123.387 128.416 122.683 126.322C122.251 125.057 121.675 123.206 120.896 120.644L120.743 120.148C121.449 123.932 121.575 126.488 120.97 127.591C120.856 127.819 120.696 128.02 120.5 128.183C120.303 128.345 120.076 128.465 119.83 128.535C117.844 129.067 117.017 127.781 105.656 87.104C100.82 70.0038 94.5252 47.4375 91.6304 40.9695C91.8747 44.1742 93.4457 52.4164 99.5611 73.4923C104.546 90.6709 110.626 109.747 113.552 118.893C115.576 125.243 115.57 125.234 115.326 125.685C115.176 125.952 114.927 126.149 114.632 126.232C113.751 126.466 112.862 126.706 110.037 119.601C110.191 120.539 110.104 121.501 109.782 122.395C109.681 122.584 109.542 122.749 109.374 122.882C109.205 123.015 109.012 123.112 108.804 123.166C107.534 123.505 107.534 123.505 103.025 109.817C100.811 103.053 97.7631 93.6743 93.9859 81.8637C90.3425 70.4746 86.6987 59.0005 84.214 51.146C87.8562 66.6845 97.1829 96.473 101.33 109.725C104.999 121.506 104.999 121.506 104.716 122.017C104.642 122.148 104.543 122.263 104.424 122.356C104.305 122.448 104.169 122.517 104.024 122.556C102.479 122.968 100.907 121.235 98.6565 115.557C98.639 115.701 98.6014 115.841 98.5446 115.974C98.4552 116.139 98.3336 116.285 98.187 116.402C98.0403 116.519 97.8717 116.605 97.691 116.656C96.1787 117.06 94.4668 117.52 83.0254 80.2226C86.2214 90.9211 89.6846 102.061 92.6105 111.091C92.6577 111.235 92.6749 111.388 92.6611 111.539C92.6473 111.691 92.6027 111.838 92.53 111.972C92.4574 112.105 92.3583 112.223 92.2387 112.317C92.1191 112.411 91.9816 112.479 91.8346 112.518C90.7727 112.797 90.4493 111.931 89.9174 110.462C89.5993 109.605 89.142 108.318 88.5739 106.639C88.0057 104.959 87.2711 102.865 86.462 100.357C87.175 103.741 87.2931 105.748 86.8121 106.622C86.7119 106.812 86.573 106.98 86.4042 107.114C86.2355 107.248 86.0406 107.346 85.8321 107.4C84.6266 107.725 84.2675 107.482 81.5124 98.9383C81.7565 100.647 81.7028 101.797 81.3431 102.449C81.2384 102.653 81.0922 102.833 80.914 102.978C80.7358 103.123 80.5293 103.229 80.3078 103.29C78.641 103.753 78.1361 102.932 71.5523 80.2646C69.6663 73.7738 67.2971 65.6031 65.1522 58.9272L76.9922 103.142C77.032 103.284 77.0427 103.432 77.0234 103.578C77.0042 103.724 76.9555 103.865 76.8804 103.991C76.7333 104.246 76.492 104.434 76.2083 104.513C75.1373 104.797 74.7856 103.893 74.2 102.394C73.8483 101.49 73.3609 100.171 72.719 98.3639C71.5088 94.9929 69.8975 90.3266 68.1824 85.3857C66.1919 79.6304 63.6824 72.3863 61.538 66.4279C62.4447 69.1468 63.4343 71.9882 64.3152 74.5151C68.9029 87.6767 70.6735 93.1879 69.7788 94.915C69.6851 95.096 69.5553 95.2558 69.3974 95.3847C69.2395 95.5135 69.0568 95.6086 68.8607 95.664C67.5991 95.997 67.541 96.0123 61.7143 80.7678C65.3928 91.6803 66.3369 95.1806 65.6572 96.4794C65.5691 96.6464 65.4477 96.7937 65.3006 96.9121C65.1534 97.0305 64.9837 97.1176 64.8016 97.168C63.7887 97.4365 63.7887 97.4365 60.2539 89.586C59.1913 87.2187 57.7122 83.93 56.3274 80.9518C57.0152 83.2496 57.8146 85.7932 58.5998 88.2172C58.647 88.3618 58.6642 88.5145 58.6504 88.6659C58.6366 88.8174 58.592 88.9644 58.5194 89.098C58.4467 89.2317 58.3476 89.349 58.228 89.443C58.1085 89.537 57.9709 89.6056 57.8239 89.6446C56.9963 89.8547 56.8929 89.665 55.7049 87.7655C54.7388 86.2185 53.8847 84.8867 53.1537 83.7575C55.2961 91.3352 55.1677 91.5553 54.9291 91.9851C54.8553 92.1152 54.7562 92.2294 54.6376 92.3208C54.5191 92.4122 54.3835 92.4791 54.2388 92.5174C54.097 92.5565 53.9488 92.567 53.8028 92.5482C53.6569 92.5295 53.5161 92.482 53.3887 92.4084C53.2613 92.3348 53.1498 92.2365 53.0607 92.1195C52.9716 92.0024 52.9066 91.8687 52.8696 91.7263C52.8347 91.6052 52.8215 91.479 52.8307 91.3534C52.6554 90.2805 50.9499 84.1235 49.3698 78.6788C49.34 78.5016 49.3517 78.3199 49.404 78.148ZM53.6957 90.4281C53.472 90.4907 53.273 90.6204 53.1256 90.7999C53.2751 90.6229 53.4734 90.4936 53.6957 90.4281ZM71.8041 66.803C69.5912 59.5459 67.3441 52.3875 65.6418 47.6582C67.0626 52.69 69.5329 60.1088 71.8041 66.803ZM83.7971 98.702C81.7738 90.5932 77.4792 77.2016 74.1987 67.0204C75.3359 70.7498 76.6127 74.9949 78.0515 79.8155C80.029 86.4542 82.1551 93.6033 83.7971 98.702ZM78.8829 96.8916C77.8669 92.5082 75.7135 85.6912 73.5287 79.0201L73.7285 79.7138C75.5314 85.8816 77.4791 92.574 78.8973 96.8955L78.8829 96.8916ZM104.528 65.8373C102.828 60.2911 101.186 55.2231 99.7464 50.9808C101.13 55.3469 102.803 60.5311 104.528 65.8373ZM119.104 124.653C118.944 122.374 118.115 117.408 115.003 106.539C111.891 95.6704 107.532 82.3771 103.682 70.5472C101.982 65.3788 100.598 61.0434 99.4345 57.384C101.539 64.4424 104.23 73.8871 107.75 86.485C112.055 101.823 116.841 118.964 119.104 124.653ZM99.8003 112.238L99.2375 110.452C97.3873 104.557 95.6552 98.9792 94.0413 93.7183C96.0438 100.695 98.0559 107.32 99.8003 112.238ZM117.374 65.7931C115.156 58.1256 112.945 50.6606 111.402 45.681C111.924 48.135 112.704 51.1283 113.658 54.5311C114.85 57.9434 116.107 61.7434 117.374 65.7931ZM131.86 87.7852C130.758 84.5281 129.659 81.318 128.636 78.3134C126.589 72.3657 124.824 67.0949 123.316 62.5334L124.7 67.1543C129.776 84.1338 137.12 108.655 140.169 116.105C139.759 113.542 139.18 111.009 138.437 108.522C137.376 105.6 136.149 101.916 134.708 97.2795C133.781 94.2621 132.831 91.069 131.874 87.789L131.86 87.7852Z" fill="#C47E08"/>
<g opacity="0.4">
<path d="M49.4079 78.149C49.4329 78.0593 49.4689 77.9731 49.5153 77.8923C49.6637 77.6312 49.9092 77.4392 50.1984 77.3581C50.9535 77.1593 51.3601 77.0523 54.0295 81.0225C51.7758 73.3996 52.1284 72.7459 52.3241 72.3896C52.4924 72.1145 52.7555 71.9106 53.0639 71.8165C54.2693 71.4916 54.5089 71.4323 61.1785 86.2085C60.4397 83.928 59.6286 81.5432 58.9141 79.4312C54.6545 66.8588 53.5212 62.9994 54.2528 61.6219C54.341 61.4549 54.4624 61.3076 54.6095 61.1892C54.7566 61.0708 54.9264 60.9837 55.1084 60.9333C56.4046 60.5864 56.4046 60.5864 62.9159 77.6804L64.2 81.0635C63.5424 79.1133 62.8613 77.1644 62.2372 75.3774C57.5926 62.054 55.6571 56.0358 56.6037 54.2301C56.7026 54.0416 56.8407 53.8765 57.0088 53.7459C57.1768 53.6154 57.3709 53.5223 57.5779 53.473C58.987 53.0792 59.299 53.0085 67.8669 77.6264L59.3736 45.9941C59.3032 45.7138 59.3456 45.417 59.4917 45.1676C59.6379 44.9183 59.8761 44.7363 60.1551 44.6608C61.1191 44.4023 62.0407 45.0504 63.252 47.4961C62.2831 43.8581 62.046 41.8354 62.4958 40.9917C62.589 40.8161 62.7165 40.6609 62.8707 40.5353C63.0249 40.4097 63.2027 40.3162 63.3936 40.2604C64.59 39.9408 65.4854 40.4276 68.5672 49.4216C65.7577 40.246 65.0883 36.9582 65.6573 35.8997C65.7418 35.7423 65.8574 35.6038 65.9973 35.4927C66.1371 35.3817 66.2982 35.3003 66.4706 35.2537C67.511 34.9694 67.7037 35.5456 68.4143 37.672L69.9459 42.3478L72.251 49.4908C70.5651 41.8504 71.0726 40.9065 71.3597 40.3818C71.4535 40.2042 71.5821 40.0475 71.738 39.9209C71.8938 39.7943 72.0737 39.7006 72.2667 39.6452C72.5461 39.5778 72.8407 39.6207 73.0894 39.7649C73.338 39.909 73.5216 40.1435 73.6018 40.4195C80.4642 64.8966 91.8126 102.886 96.3493 112.524C94.887 103.733 86.6141 76.402 81.8791 60.8252C75.799 40.7691 75.8418 40.6957 76.2217 40.0262C76.295 39.8865 76.3957 39.763 76.5179 39.6632C76.6401 39.5633 76.7812 39.4893 76.9327 39.4454C78.0964 39.1325 78.7364 39.3348 81.1533 47.3562C80.5121 43.7906 80.402 41.5243 80.8647 40.661C80.9659 40.472 81.1049 40.3059 81.2732 40.1731C81.4415 40.0404 81.6354 39.9438 81.8428 39.8895C82.1189 39.8158 82.4127 39.8514 82.6632 39.9889C82.9137 40.1264 83.1015 40.3553 83.1876 40.6278C91.0558 65.5826 102.25 100.723 107.096 115.134C106.274 111.266 104.915 106.003 103.232 100.107C101.692 95.2901 99.9248 89.5947 97.8856 82.8699C95.1832 73.9852 92.5471 65.0258 90.3791 57.5724C84.7559 39.4668 84.8492 39.2912 85.2388 38.5857C85.3144 38.4466 85.4168 38.3238 85.54 38.2245C85.6633 38.1251 85.805 38.0512 85.957 38.0068C86.2364 37.9394 86.5311 37.9823 86.7797 38.1265C87.0284 38.2707 87.2119 38.5051 87.2922 38.7811C88.8133 44.1869 90.5219 50.1596 92.3295 56.3672L93.3478 59.6482C89.9467 46.7505 88.8036 39.8186 89.7377 38.1174C89.8352 37.9179 89.974 37.7415 90.145 37.5997C90.316 37.458 90.5151 37.3543 90.7292 37.2956C92.06 36.9348 93.2736 38.2781 96.3129 47.5462C94.5745 41.6272 94.1933 39.3653 94.6314 38.5648C94.712 38.4113 94.8234 38.2762 94.9586 38.1677C95.0938 38.0593 95.25 37.9799 95.4173 37.9347C96.3232 37.6915 97.0765 37.4999 99.4863 43.7917C98.8068 40.5706 98.704 38.6225 99.1422 37.822C99.2363 37.6391 99.3672 37.4777 99.5268 37.3478C99.6864 37.218 99.8711 37.1227 100.069 37.0677C100.212 37.0285 100.362 37.0183 100.509 37.0379C100.656 37.0574 100.798 37.1063 100.926 37.1815C101.181 37.3313 101.368 37.5751 101.446 37.8608C108.466 64.7713 120.019 105.77 125.619 118.809C122.263 105.253 111.873 67.5738 104.488 41.2445C104.449 41.1024 104.438 40.9539 104.456 40.8075C104.474 40.6611 104.521 40.5198 104.594 40.3917C104.667 40.2635 104.765 40.1511 104.882 40.0609C104.998 39.9707 105.132 39.9045 105.274 39.8662C105.501 39.8087 105.738 39.7981 105.969 39.8349C106.201 39.8717 106.422 39.9552 106.62 40.0804C107.426 40.7255 108.071 41.5478 108.507 42.4832C108.272 40.6232 108.321 39.4331 108.651 38.835C108.753 38.6488 108.892 38.4856 109.06 38.3553C109.227 38.2251 109.42 38.1307 109.625 38.0779C110.914 37.7291 111.446 39.1983 112.247 41.4184C112.833 43.118 113.633 45.5153 114.654 48.8433C116.554 55.0524 119.003 63.5298 121.588 72.5065C124.5 82.5966 127.96 94.5844 130.916 104.162C125.54 83.9243 116.807 51.9807 112.603 36.6388C112.527 36.3494 112.568 36.042 112.716 35.7823C112.789 35.6547 112.887 35.5431 113.003 35.4538C113.12 35.3645 113.253 35.2994 113.396 35.2624C114.508 34.9666 114.833 34.8763 118.28 46.0199C117.23 41.7354 116.977 39.1377 117.58 38.0111C117.688 37.7968 117.84 37.6075 118.025 37.4553C118.211 37.3031 118.426 37.1914 118.658 37.1274C120.088 36.7394 120.088 36.7394 125.502 56.7482C128.005 66.0036 131 77.0492 133.983 87.2742C136.913 95.973 139.092 102.751 140.509 107.828C141.422 110.536 142.536 113.173 143.841 115.716C142.212 105.646 130.262 64.4024 122.315 38.2155C122.228 37.9322 122.256 37.6256 122.394 37.3632C122.532 37.1008 122.769 36.9041 123.053 36.8164C123.336 36.7287 123.643 36.7571 123.905 36.8953C124.167 37.0336 124.364 37.2705 124.452 37.5538L127.018 45.7079C125.603 39.1581 125.685 36.8661 126.145 36.0407C126.246 35.8524 126.385 35.6872 126.553 35.5556C126.721 35.424 126.914 35.3289 127.121 35.2764C127.398 35.2008 127.692 35.2356 127.943 35.3733C128.194 35.5111 128.382 35.7411 128.466 36.0147L134.187 53.9846C130.465 39.5508 130.989 38.6036 131.313 38.0271C131.396 37.8727 131.509 37.7368 131.645 37.6276C131.782 37.5183 131.939 37.438 132.108 37.3916C132.385 37.3216 132.679 37.3606 132.929 37.5007C133.178 37.6407 133.364 37.8711 133.449 38.1443C139.114 56.9862 147.433 83.8281 152.915 99.6669C149.578 87.1643 144.542 68.8842 140.985 56.0218L137.107 41.7083C136.238 38.5292 135.811 36.9877 135.642 36.1788L135.577 35.9608C135.472 35.4006 135.541 35.2879 135.655 35.0946C135.763 34.9061 135.925 34.7533 136.119 34.6552C136.313 34.557 136.532 34.5177 136.748 34.542C136.964 34.5664 137.169 34.6534 137.336 34.7923C137.504 34.9313 137.627 35.1161 137.691 35.3241C143.698 55.3066 152.891 84.9049 157.711 98.3524C155.831 91.3773 152.497 80.8193 149.799 72.3215C142.295 48.5131 140.223 41.3324 141.15 39.66C141.236 39.5005 141.353 39.36 141.495 39.2468C141.636 39.1337 141.799 39.0503 141.974 39.0016C142.878 38.7656 143.519 38.5902 146.58 46.6532C146.261 44.593 146.285 43.2651 146.652 42.5845C146.754 42.3915 146.894 42.2211 147.063 42.0836C147.233 41.946 147.428 41.8442 147.638 41.7842C147.915 41.7152 148.207 41.7538 148.456 41.8922C148.706 42.0306 148.893 42.2584 148.981 42.5297C153.778 58.0461 161.469 81.7347 165.029 90.1242C163.684 83.2539 158.694 67.709 155.79 58.5697C151.08 43.6476 151.006 43.1186 151.425 42.3594C151.5 42.2195 151.602 42.0962 151.725 41.9967C151.849 41.8972 151.991 41.8237 152.143 41.7805C153.284 41.469 154.297 41.2005 159.531 55.9778C158.965 54.1755 158.373 52.3276 157.768 50.4379C157.696 50.2757 157.662 50.0992 157.668 49.9217C157.674 49.7443 157.72 49.5706 157.804 49.4138C157.876 49.2809 157.974 49.1645 158.093 49.0716C158.212 48.9787 158.35 48.9115 158.496 48.8742C160.034 48.4609 160.881 49.8758 165.248 60.4331C165.326 60.2815 165.434 60.148 165.566 60.0412C165.698 59.9345 165.852 59.8568 166.016 59.8134C166.3 59.7465 166.599 59.7924 166.85 59.9417C167.1 60.0909 167.283 60.3316 167.36 60.6132C167.417 60.8449 167.402 61.0883 167.319 61.3119C167.675 62.6273 168.1 63.923 168.593 65.1936C170.121 69.3669 170.445 70.5181 170.035 71.3263C169.954 71.4837 169.841 71.6227 169.703 71.7345C169.566 71.8463 169.407 71.9286 169.236 71.9761C167.991 72.3058 167.472 71.6501 164.489 64.5336C165.064 66.4463 165.662 68.419 166.241 70.4023C171.959 89.7673 171.311 90.9745 170.914 91.7087C170.831 91.8714 170.714 92.0147 170.572 92.1294C170.429 92.2441 170.264 92.3276 170.088 92.3744C169.811 92.4453 169.518 92.4075 169.268 92.2689C169.018 92.1302 168.831 91.9012 168.745 91.6289C165.882 82.1614 162.687 72.2654 159.869 63.9281C165.954 83.1602 168.466 92.2947 167.309 94.368C167.214 94.5494 167.083 94.7093 166.924 94.8378C166.765 94.9664 166.581 95.0608 166.384 95.1151C165.013 95.4806 164.016 95.7458 155.15 69.0193L153.866 65.1736C155.518 70.5219 157.299 75.9663 158.743 80.3642C164.295 97.4709 165.051 100.204 164.497 101.235C164.417 101.376 164.31 101.498 164.181 101.597C164.053 101.695 163.906 101.766 163.75 101.806C163.474 101.88 163.18 101.844 162.93 101.707C162.679 101.569 162.491 101.341 162.405 101.068C157.2 84.5708 149.307 60.3962 144.83 48.2901C146.589 54.6233 149.456 63.6988 151.951 71.6022C159.891 96.6613 162.159 104.751 161.156 106.595C161.066 106.76 160.945 106.906 160.798 107.023C160.651 107.14 160.483 107.226 160.302 107.277C159.247 107.557 158.497 107.765 153.496 93.0115C158.972 113.276 158.781 113.587 158.503 114.107C158.429 114.238 158.329 114.353 158.211 114.446C158.092 114.538 157.956 114.607 157.811 114.646C156.373 115.032 155.322 115.298 143.045 76.5434C142.149 73.7271 141.262 70.9056 140.403 68.1224C144.637 83.295 149.983 101.457 154.198 115.26C154.241 115.404 154.254 115.555 154.238 115.704C154.222 115.853 154.176 115.998 154.104 116.129C153.956 116.393 153.71 116.588 153.419 116.671C152.39 116.943 152.045 116.04 151.713 115.095C151.505 114.515 151.209 113.664 150.852 112.55C150.16 110.498 149.13 107.461 147.862 103.558C145.714 96.9813 142.751 87.803 139.052 76.2756C135.494 65.1717 131.912 53.9843 129.484 46.3223C131.738 56.1898 137.107 75.6465 149.119 113.575C150.842 119.035 150.842 119.035 150.621 119.484C150.548 119.618 150.449 119.734 150.33 119.828C150.21 119.922 150.074 119.991 149.927 120.031C149.395 120.174 149.096 120.256 148.557 119.186C147.858 117.764 146.754 114.399 144.259 106.727C146.853 117.341 146.413 118.149 146.119 118.671C146.038 118.825 145.927 118.96 145.791 119.068C145.656 119.177 145.5 119.256 145.333 119.302C144.552 119.509 143.714 119.385 142.487 117.513C142.513 118.128 142.396 118.741 142.147 119.304C142.035 119.526 141.878 119.721 141.685 119.878C141.493 120.036 141.27 120.151 141.031 120.216C139.6 120.604 138.87 120.794 131.113 95.7995C138.159 121.953 138.041 122.161 137.753 122.662C137.68 122.791 137.583 122.904 137.466 122.995C137.349 123.085 137.215 123.151 137.071 123.189C135.684 123.589 134.829 121.971 133.399 118.271C132.494 115.892 131.348 112.569 129.94 108.15C134.423 122.826 135.205 126.414 134.63 127.464C134.549 127.612 134.439 127.743 134.306 127.848C134.173 127.953 134.021 128.03 133.857 128.074C133.716 128.114 133.567 128.124 133.421 128.105C133.275 128.086 133.135 128.037 133.008 127.962C132.879 127.889 132.766 127.79 132.676 127.672C132.585 127.553 132.52 127.418 132.483 127.274C130.29 118.819 127.986 110.203 125.672 101.854L122.953 93.1194C117.591 75.9399 113.776 63.4329 111.416 54.7401C110.421 51.9203 109.513 49.4942 108.72 47.5308C110.885 55.2842 114.559 68.4864 118.157 81.6838C129.573 123.309 129.275 123.815 128.912 124.451C128.838 124.582 128.739 124.697 128.62 124.79C128.501 124.882 128.365 124.95 128.22 124.99C128.008 125.045 127.787 125.056 127.57 125.023C127.354 124.991 127.146 124.914 126.96 124.799C126.32 124.4 125.807 123.827 125.482 123.146C126.052 125.944 126.141 127.626 125.756 128.341C125.664 128.515 125.537 128.669 125.383 128.792C125.23 128.915 125.052 129.006 124.862 129.058C123.715 129.367 123.391 128.417 122.687 126.323C122.255 125.058 121.679 123.207 120.9 120.645L120.747 120.149C121.453 123.933 121.578 126.489 120.974 127.592C120.86 127.82 120.7 128.021 120.503 128.184C120.307 128.346 120.079 128.466 119.834 128.536C117.848 129.068 117.021 127.782 105.66 87.105C100.824 70.0048 94.5291 47.4385 91.6343 40.9704C91.8786 44.1752 93.4496 52.4173 99.565 73.4933C104.55 90.6719 110.63 109.748 113.556 118.893C115.579 125.244 115.574 125.235 115.33 125.686C115.18 125.953 114.93 126.15 114.636 126.233C113.755 126.467 112.866 126.707 110.041 119.602C110.195 120.54 110.107 121.501 109.786 122.396C109.685 122.585 109.546 122.75 109.377 122.883C109.209 123.016 109.016 123.113 108.808 123.167C107.538 123.506 107.538 123.506 103.029 109.818C100.815 103.054 97.767 93.6753 93.9898 81.8646C90.3464 70.4755 86.7026 59.0015 84.2179 51.147C87.8601 66.6855 97.1868 96.4739 101.334 109.726C105.003 121.507 105.003 121.507 104.72 122.018C104.646 122.149 104.547 122.264 104.428 122.357C104.309 122.449 104.173 122.518 104.028 122.557C102.483 122.969 100.911 121.236 98.6604 115.558C98.6429 115.702 98.6053 115.842 98.5485 115.975C98.4591 116.14 98.3375 116.286 98.1909 116.403C98.0442 116.52 97.8756 116.606 97.6949 116.657C96.1826 117.061 94.4707 117.521 83.0293 80.2236C86.2253 90.9221 89.6885 102.062 92.6144 111.092C92.6616 111.236 92.6788 111.389 92.665 111.54C92.6512 111.692 92.6066 111.839 92.5339 111.973C92.4613 112.106 92.3622 112.224 92.2426 112.318C92.123 112.412 91.9855 112.48 91.8385 112.519C90.7766 112.798 90.4532 111.932 89.9213 110.463C89.6032 109.606 89.1459 108.319 88.5778 106.639C88.0096 104.96 87.275 102.866 86.466 100.358C87.1789 103.742 87.297 105.749 86.816 106.622C86.7158 106.813 86.5769 106.981 86.4081 107.115C86.2394 107.249 86.0445 107.347 85.836 107.401C84.6305 107.726 84.2714 107.483 81.5163 98.9393C81.7604 100.648 81.7068 101.798 81.347 102.45C81.2423 102.654 81.0961 102.834 80.9179 102.979C80.7397 103.124 80.5332 103.23 80.3118 103.291C78.6449 103.754 78.14 102.933 71.5562 80.2656C69.6702 73.7747 67.301 65.6041 65.1561 58.9282L76.9961 103.143C77.036 103.285 77.0466 103.433 77.0273 103.579C77.0081 103.725 76.9594 103.866 76.8843 103.992C76.7372 104.247 76.4959 104.435 76.2122 104.514C75.1412 104.798 74.7895 103.894 74.2039 102.395C73.8522 101.491 73.3648 100.172 72.7229 98.3649C71.5127 94.9939 69.9014 90.3276 68.1863 85.3866C66.1958 79.6314 63.6863 72.3873 61.5419 66.4289C62.4486 69.1478 63.4382 71.9892 64.3192 74.5161C68.9068 87.6777 70.6774 93.1888 69.7827 94.916C69.689 95.097 69.5592 95.2568 69.4013 95.3857C69.2434 95.5145 69.0607 95.6096 68.8646 95.665C67.603 95.998 67.5449 96.0133 61.7182 80.7687C65.3967 91.6813 66.3408 95.1815 65.6611 96.4804C65.573 96.6474 65.4516 96.7946 65.3045 96.9131C65.1573 97.0315 64.9876 97.1186 64.8056 97.169C63.7926 97.4375 63.7926 97.4375 60.2578 89.587C59.1952 87.2197 57.7161 83.931 56.3313 80.9528C57.0192 83.2506 57.8185 85.7941 58.6037 88.2182C58.6509 88.3628 58.6681 88.5155 58.6543 88.6669C58.6405 88.8184 58.5959 88.9654 58.5233 89.099C58.4506 89.2326 58.3515 89.35 58.2319 89.444C58.1124 89.538 57.9748 89.6066 57.8278 89.6455C57.0002 89.8557 56.8968 89.666 55.7088 87.7665C54.7427 86.2195 53.8886 84.8877 53.1576 83.7585C55.3 91.3362 55.1716 91.5563 54.933 91.986C54.8592 92.1162 54.7601 92.2304 54.6415 92.3218C54.523 92.4132 54.3874 92.48 54.2427 92.5184C54.1009 92.5575 53.9527 92.5679 53.8067 92.5492C53.6608 92.5305 53.52 92.483 53.3926 92.4093C53.2652 92.3357 53.1537 92.2375 53.0646 92.1204C52.9755 92.0033 52.9105 91.8697 52.8735 91.7273C52.8386 91.6062 52.8254 91.48 52.8346 91.3543C52.6593 90.2815 50.9538 84.1244 49.3737 78.6797C49.3439 78.5026 49.3557 78.3209 49.4079 78.149ZM53.6996 90.4291C53.4759 90.4916 53.2769 90.6214 53.1295 90.8009C53.2791 90.6238 53.4773 90.4946 53.6996 90.4291ZM71.808 66.804C69.5951 59.5468 67.3481 52.3885 65.6457 47.6592C67.0665 52.691 69.5368 60.1097 71.808 66.804ZM83.801 98.703C81.7778 90.5942 77.4831 77.2026 74.2026 67.0214C75.3398 70.7508 76.6166 74.9958 78.0554 79.8165C80.0329 86.4552 82.159 93.6043 83.801 98.703ZM78.8868 96.8926C77.8708 92.5092 75.7174 85.6922 73.5326 79.0211L73.7324 79.7148C75.5353 85.8825 77.483 92.575 78.9012 96.8965L78.8868 96.8926ZM104.532 65.8382C102.832 60.2921 101.19 55.2241 99.7503 50.9818C101.133 55.3478 102.807 60.5321 104.532 65.8382ZM119.108 124.654C118.948 122.375 118.119 117.409 115.007 106.54C111.895 95.6714 107.535 82.3781 103.686 70.5481C101.986 65.3797 100.602 61.0444 99.4384 57.385C101.543 64.4434 104.234 73.8881 107.754 86.486C112.059 101.824 116.845 118.965 119.108 124.654ZM99.8042 112.239L99.2414 110.453C97.3912 104.558 95.6591 98.9802 94.0452 93.7193C96.0477 100.696 98.0598 107.321 99.8042 112.239ZM117.378 65.7941C115.16 58.1266 112.949 50.6616 111.406 45.682C111.928 48.136 112.708 51.1293 113.662 54.5321C114.854 57.9443 116.111 61.7444 117.378 65.7941ZM131.864 87.7861C130.762 84.529 129.663 81.3189 128.64 78.3144C126.593 72.3666 124.828 67.0959 123.319 62.5344L124.704 67.1553C129.78 84.1348 137.124 108.656 140.173 116.106C139.763 113.543 139.184 111.01 138.44 108.523C137.38 105.601 136.153 101.917 134.712 97.2805C133.785 94.2631 132.835 91.07 131.878 87.79L131.864 87.7861Z" fill="white"/>
</g>
<path d="M168.847 93.7704L168.976 93.2882C175.486 67.0644 160.793 42.0471 136.231 35.4658C128.899 33.4889 121.194 33.3419 113.792 35.0377C109.988 35.5611 100.685 36.8016 88.9382 37.3486C78.0932 37.8673 67.5923 36.8431 66.0451 36.4285C65.9011 36.3899 65.75 36.3494 65.5845 36.3051C65.1367 36.1696 64.6663 36.1255 64.2012 36.1752C63.736 36.2249 63.2856 36.3675 62.8766 36.5946C62.4676 36.8217 62.1083 37.1285 61.8202 37.497C61.532 37.8655 61.3207 38.2881 61.1989 38.7398L48.6765 85.4741C48.5561 85.9261 48.5278 86.3978 48.5931 86.861C48.6585 87.3242 48.8161 87.7696 49.0568 88.1707C49.2975 88.5719 49.6163 88.9206 49.9942 89.1962C50.3722 89.4719 50.8017 89.6688 51.2572 89.7754C51.4227 89.8197 51.5738 89.8602 51.7177 89.8988C53.2362 90.3057 62.8424 94.6691 72.0057 100.541C81.875 106.888 89.3497 112.586 92.3747 114.97C98.2033 120.378 105.319 124.206 113.044 126.088C120.77 127.97 128.848 127.845 136.511 125.724C144.175 123.603 151.168 119.557 156.826 113.97C162.484 108.383 166.619 101.442 168.837 93.8064L168.847 93.7704Z" stroke="#263238" stroke-width="2" stroke-linecap="round" stroke-linejoin="round"/>
<path d="M157.394 107.602C158.329 106.456 159.196 105.256 159.992 104.01" stroke="#263238" stroke-width="3" stroke-linecap="round" stroke-linejoin="round"/>
<path d="M141.947 119.537C141.947 119.537 148.76 117.429 154.887 110.424" stroke="#263238" stroke-width="3" stroke-linecap="round" stroke-linejoin="round"/>
<path d="M76.1488 64.5885L99.264 70.7822C99.264 70.7822 110.043 75.5757 111.611 69.7249C113.179 63.8741 107.201 62.7506 99.0953 67.8137C90.9896 72.8768 94.0564 84.8056 98.6451 87.4852C103.234 90.1648 106.445 87.161 103.004 83.8248C99.5634 80.4886 53.0243 70.4327 53.0243 70.4327" stroke="#263238" stroke-width="3" stroke-linecap="round" stroke-linejoin="round"/>
<path d="M184.98 80.3379L176.476 80.728" stroke="#263238" stroke-width="3" stroke-linecap="round" stroke-linejoin="round"/>
<path d="M151.538 136.77L147.322 126.855" stroke="#263238" stroke-width="3" stroke-linecap="round" stroke-linejoin="round"/>
<path d="M182.497 112.492L169.766 105.771" stroke="#263238" stroke-width="3" stroke-linecap="round" stroke-linejoin="round"/>
<path d="M44.9593 85.8744L58.1856 36.5134C58.3549 35.8814 57.9799 35.2319 57.3479 35.0625L56.7794 34.9102C56.1475 34.7409 55.4979 35.1159 55.3286 35.7478L42.1023 85.1089C41.933 85.7409 42.308 86.3904 42.94 86.5597L43.5085 86.7121C44.1404 86.8814 44.79 86.5064 44.9593 85.8744Z" fill="#263238" stroke="#263238" stroke-linecap="round" stroke-linejoin="round"/>
<path d="M38.5257 84.1498L51.752 34.7888C51.9213 34.1568 51.5463 33.5073 50.9143 33.3379L50.3458 33.1856C49.7139 33.0163 49.0643 33.3913 48.895 34.0232L35.6687 83.3843C35.4994 84.0162 35.8744 84.6658 36.5064 84.8351L37.0749 84.9875C37.7068 85.1568 38.3564 84.7818 38.5257 84.1498Z" fill="#263238" stroke="#263238" stroke-linecap="round" stroke-linejoin="round"/>
<path d="M32.0921 82.4252L45.3184 33.0642C45.4877 32.4322 45.1127 31.7827 44.4808 31.6133L43.9122 31.461C43.2803 31.2917 42.6307 31.6667 42.4614 32.2986L29.2351 81.6597C29.0658 82.2916 29.4408 82.9412 30.0728 83.1105L30.6413 83.2629C31.2733 83.4322 31.9228 83.0572 32.0921 82.4252Z" fill="#263238" stroke="#263238" stroke-linecap="round" stroke-linejoin="round"/>
<path d="M32.0171 57.5767L38.8086 32.2305L26.7781 36.8281C25.7454 37.2218 24.8208 37.8551 24.0806 38.6759C23.3404 39.4967 22.8057 40.4815 22.5204 41.5493L16.5426 63.8586C16.2568 64.9287 16.2292 66.0513 16.462 67.1342C16.6949 68.217 17.1815 69.2291 17.8818 70.0872L25.9667 80.013L32.0171 57.5767Z" fill="#263238" stroke="#263238" stroke-linecap="round" stroke-linejoin="round"/>
<path d="M125.037 140.822C125.037 140.822 121.234 134.866 119.74 130.424C118.246 125.982 115.618 122.462 112.985 125.467C111.405 127.273 112.052 130.616 112.052 130.616C112.052 130.616 112.036 125.668 108.064 123.709C104.092 121.75 103.33 131.388 103.33 131.388C103.33 131.388 100.52 123.453 98.2817 125.098C96.0437 126.743 96.1809 131.269 95.6197 133.363C95.0586 135.457 98.9509 147.731 98.2703 150.271C97.5896 152.812 90.8016 156.354 86.6132 155.231C82.4248 154.109 81.0528 160.899 93.8131 165.236C106.573 169.573 118.364 169.123 123.177 164.574C127.991 160.024 125.037 140.822 125.037 140.822Z" fill="white" stroke="#263238" stroke-miterlimit="10" stroke-linecap="round"/>
<path d="M111.483 134.498L113.25 152.889C113.25 152.889 112.873 160.656 102.783 163.598" stroke="#263238" stroke-miterlimit="10" stroke-linecap="round"/>
<path d="M105.668 136.079L104.13 151.865C104.13 151.865 102.751 158.684 93.6689 160.739" stroke="#263238" stroke-miterlimit="10" stroke-linecap="round"/>
<path d="M90.6767 151.823L91.1892 139.835L62.5869 139.352C62.5869 139.352 49.283 142.081 43.8053 142.403C38.3275 142.724 16.998 155.428 16.998 155.428L30.8826 180.7C30.8826 180.7 44.2392 174.405 46.8698 174.663C49.5005 174.92 79.2704 181.092 83.4588 182.215C87.6472 183.337 99.9525 177.656 99.9525 177.656C99.9525 177.656 105.804 175.537 114.63 176.105C123.456 176.672 128.961 169.917 129.669 165.603C130.378 161.288 132.194 149.472 130.068 143.966C127.941 138.46 124.884 133.144 122.5 137.002C118.549 143.402 124.782 157.274 116.891 161.045C113.287 162.779 99.5874 162.294 97.77 162.254C97.77 162.254 90.3717 158.027 90.6911 151.826" fill="white"/>
<path d="M90.6767 151.823L91.1892 139.835L62.5869 139.352C62.5869 139.352 49.283 142.081 43.8053 142.403C38.3275 142.724 16.998 155.428 16.998 155.428L30.8826 180.7C30.8826 180.7 44.2392 174.405 46.8698 174.663C49.5005 174.92 79.2704 181.092 83.4588 182.215C87.6472 183.337 99.9525 177.656 99.9525 177.656C99.9525 177.656 105.804 175.537 114.63 176.105C123.456 176.672 128.961 169.917 129.669 165.603C130.378 161.288 132.194 149.472 130.068 143.966C127.941 138.46 124.884 133.144 122.5 137.002C118.549 143.402 124.782 157.274 116.891 161.045C113.287 162.779 99.5874 162.294 97.77 162.254C97.77 162.254 90.3717 158.027 90.6911 151.826" stroke="#263238" stroke-miterlimit="10" stroke-linecap="round"/>
<path d="M140.918 120.07C141.018 120.234 141.056 120.429 141.025 120.619C140.994 120.809 140.896 120.981 140.749 121.105L139.102 122.499C138.938 122.637 138.726 122.703 138.513 122.685C138.3 122.667 138.102 122.565 137.963 122.403C137.826 122.24 137.759 122.029 137.777 121.817C137.795 121.605 137.896 121.409 138.058 121.271L139.712 119.878C139.875 119.741 140.085 119.674 140.297 119.692C140.509 119.71 140.706 119.811 140.843 119.973C140.872 120.002 140.897 120.035 140.918 120.07Z" fill="#263238" stroke="#263238" stroke-miterlimit="10" stroke-linecap="round"/>
<path d="M139.009 121.665C139.242 122.039 139.331 122.484 139.262 122.919C139.192 123.354 138.967 123.749 138.629 124.031L134.427 128.659L85.6312 172.076C85.1985 172.442 84.6979 172.719 84.1582 172.891C83.6184 173.063 83.0501 173.128 82.4855 173.08C81.9209 173.033 81.3712 172.875 80.8677 172.615C80.3643 172.355 79.9169 171.998 79.5512 171.566C79.1855 171.133 78.9087 170.632 78.7364 170.092C78.5642 169.553 78.4999 168.984 78.5474 168.42C78.5948 167.855 78.753 167.305 79.0128 166.802C79.2727 166.299 79.6292 165.851 80.062 165.486L131.507 124.445L136.226 121.228C136.41 121.071 136.624 120.953 136.854 120.879C137.085 120.806 137.327 120.778 137.568 120.798C137.809 120.818 138.044 120.886 138.259 120.997C138.474 121.108 138.665 121.26 138.821 121.445C138.89 121.512 138.953 121.585 139.009 121.665Z" fill="#C47E08" stroke="#263238" stroke-miterlimit="10" stroke-linecap="round"/>
<path d="M85.628 172.084L99.7077 159.551C99.6819 158.286 99.2542 157.062 98.4865 156.056C97.7187 155.05 96.6508 154.315 95.4373 153.956C95.196 153.893 94.9503 153.847 94.7022 153.821L80.0659 165.495C79.1919 166.234 78.6471 167.289 78.5514 168.429C78.4556 169.57 78.8167 170.701 79.5552 171.575C80.2938 172.449 81.3492 172.994 82.4894 173.09C83.6297 173.186 84.7613 172.824 85.6352 172.086L85.628 172.084Z" fill="#263238" stroke="#263238" stroke-miterlimit="10" stroke-linecap="round"/>
<path d="M43.7972 142.431C51.7313 139.621 70.481 138.358 74.4998 136.774C78.5187 135.19 87.7744 130.412 95.9606 129.913C104.147 129.415 110.605 129.379 116.894 131.064C123.184 132.75 122.816 138.444 114.986 140.835C107.157 143.226 95.5124 145.49 95.5124 145.49C95.5124 145.49 90.4254 147.721 89.8838 154.78" fill="white"/>
<path d="M43.7972 142.431C51.7313 139.621 70.481 138.358 74.4998 136.774C78.5187 135.19 87.7744 130.412 95.9606 129.913C104.147 129.415 110.605 129.379 116.894 131.064C123.184 132.75 122.816 138.444 114.986 140.835C107.157 143.226 95.5124 145.49 95.5124 145.49C95.5124 145.49 90.4254 147.721 89.8838 154.78" stroke="#263238" stroke-miterlimit="10" stroke-linecap="round"/>
<path d="M118.12 136.962L114.934 137.652C114.934 137.652 115.019 137.335 114.345 134.756C113.942 133.216 113.155 131.803 112.059 130.649C112.059 130.649 118.669 130.106 120.043 132.518C120.408 133.112 120.566 133.811 120.49 134.505C120.395 135.108 120.116 135.667 119.692 136.107C119.268 136.546 118.719 136.845 118.12 136.962Z" fill="white" stroke="#263238" stroke-miterlimit="10" stroke-linecap="round"/>
<path d="M40.591 178.596C40.591 178.596 40.2809 166.627 36.0663 159.327C33.2026 154.474 30.0419 149.801 26.6022 145.337L11.9311 152.421C11.9311 152.421 19.4836 163.7 22.4676 170.67C24.4283 175.399 26.0704 180.253 27.3828 185.2L40.591 178.596Z" fill="white" stroke="#263238" stroke-miterlimit="10" stroke-linecap="round"/>
<path d="M-48.8715 165.662L12.0163 147.182C12.0163 147.182 22.1419 158.704 26.4297 167.343C30.7176 175.981 29.9436 185.461 29.9436 185.461L-19.8869 215.612" fill="#263238"/>
<path d="M-48.8715 165.662L12.0163 147.182C12.0163 147.182 22.1419 158.704 26.4297 167.343C30.7176 175.981 29.9436 185.461 29.9436 185.461L-19.8869 215.612" stroke="#263238" stroke-miterlimit="10" stroke-linecap="round"/>
<path d="M101.276 138.858L101.155 139.596" stroke="#263238" stroke-miterlimit="10" stroke-linecap="round"/>
<path d="M99.4704 131.657C99.4704 131.657 101.664 132.653 101.392 137.525" stroke="#263238" stroke-miterlimit="10" stroke-linecap="round"/>
<path d="M99.7505 137.099C99.7505 137.099 98.8658 136.515 98.4362 132.937" stroke="#263238" stroke-miterlimit="10" stroke-linecap="round"/>
<path d="M102.859 137.793C103.039 136.108 102.827 134.405 102.242 132.815" stroke="#263238" stroke-miterlimit="10" stroke-linecap="round"/>
<path d="M201.567 55.7116C201.567 55.7116 199.192 62.3567 196.607 66.2765C194.022 70.1963 192.881 74.4259 196.848 74.6481C199.24 74.7877 201.477 72.2247 201.477 72.2247C201.477 72.2247 197.575 75.2748 198.472 79.611C199.37 83.9472 207.472 78.6365 207.472 78.6365C207.472 78.6365 202.932 85.7349 205.607 86.4901C208.282 87.2454 211.769 84.3618 213.77 83.5172C215.77 82.6725 223.062 72.0692 225.455 71.0522C227.849 70.0352 234.842 73.2125 236.531 77.2133C238.221 81.214 244.428 78.1106 240.006 65.4252C235.584 52.7399 227.989 43.6934 221.43 42.6378C214.871 41.5823 201.567 55.7116 201.567 55.7116Z" fill="white" stroke="#263238" stroke-miterlimit="10" stroke-linecap="round"/>
<path d="M204.869 70.3024L218.297 57.6101C218.297 57.6101 224.654 53.1429 233.175 59.2827" stroke="#263238" stroke-miterlimit="10" stroke-linecap="round"/>
<path d="M209.72 73.9244L223.095 65.4601C223.095 65.4601 229.324 62.3625 236.515 68.2847" stroke="#263238" stroke-miterlimit="10" stroke-linecap="round"/>
<path d="M231.351 76.1035L221.569 83.0469L238.744 105.968C238.744 105.968 240.738 118.303 244.372 122.386C248.007 126.468 271.238 135.338 271.238 135.338L282.498 108.744C282.498 108.744 269.262 102.182 267.828 99.9619C266.394 97.742 261.476 67.1602 259.785 63.1667C258.094 59.1731 246.063 52.949 246.063 52.949C241.261 50.0837 236.72 46.8022 232.493 43.1423C221.428 33.4284 222.106 34.8133 218.277 36.8959C214.449 38.9785 206.354 44.3761 203.303 49.4285C200.252 54.4808 192.772 59.7731 200.096 60.1005C207.605 60.4311 214.711 45.8595 222.519 49.7644C226.098 51.5487 234.136 62.6882 235.21 64.1178C235.21 64.1178 236.415 72.5471 231.325 76.1121" fill="white"/>
<path d="M231.351 76.1035L221.569 83.0469L238.744 105.968C238.744 105.968 240.738 118.303 244.372 122.386C248.007 126.468 271.238 135.338 271.238 135.338L282.498 108.744C282.498 108.744 269.262 102.182 267.828 99.9619C266.394 97.742 261.476 67.1602 259.785 63.1667C258.094 59.1731 246.063 52.949 246.063 52.949C241.261 50.0837 236.72 46.8022 232.493 43.1423C221.428 33.4284 222.106 34.8133 218.277 36.8959C214.449 38.9785 206.354 44.3761 203.303 49.4285C200.252 54.4808 192.772 59.7731 200.096 60.1005C207.605 60.4311 214.711 45.8595 222.519 49.7644C226.098 51.5487 234.136 62.6882 235.21 64.1178C235.21 64.1178 236.415 72.5471 231.325 76.1121" stroke="#263238" stroke-miterlimit="10" stroke-linecap="round"/>
<path d="M175.436 55.9294C175.499 55.7466 175.627 55.5927 175.794 55.4959C175.962 55.3991 176.159 55.366 176.349 55.4026L178.465 55.8539C178.575 55.868 178.681 55.9047 178.776 55.9618C178.871 56.0188 178.953 56.0949 179.018 56.1854C179.082 56.2758 179.127 56.3785 179.15 56.4872C179.172 56.5958 179.173 56.708 179.15 56.8166C179.127 56.9252 179.082 57.028 179.018 57.1184C178.953 57.2089 178.871 57.285 178.776 57.3421C178.681 57.3991 178.575 57.4359 178.465 57.4501C178.355 57.4642 178.243 57.4554 178.136 57.4243L176.018 56.9802C175.811 56.9374 175.629 56.8149 175.512 56.6391C175.395 56.4633 175.351 56.2484 175.391 56.0407L175.436 55.9294Z" fill="#263238" stroke="#263238" stroke-miterlimit="10" stroke-linecap="round"/>
<path d="M177.874 56.4893C178.025 56.0754 178.321 55.7303 178.707 55.5175C179.093 55.3048 179.543 55.2388 179.973 55.3318L186.207 55.8144L250.434 67.6787C251.554 67.9154 252.534 68.5873 253.159 69.5466C253.784 70.5059 254.001 71.6741 253.765 72.7941C253.528 73.9141 252.856 74.8942 251.897 75.5188C250.938 76.1434 249.769 76.3613 248.649 76.1246L184.665 60.7078L179.212 58.9227C178.976 58.873 178.752 58.7772 178.553 58.6408C178.354 58.5045 178.184 58.3303 178.053 58.1281C177.921 57.9259 177.831 57.6998 177.787 57.4627C177.743 57.2257 177.747 56.9822 177.797 56.7464C177.815 56.6587 177.841 56.5727 177.874 56.4893Z" fill="#C47E08" stroke="#263238" stroke-miterlimit="10" stroke-linecap="round"/>
<path d="M250.44 67.6434L231.904 64.2195C230.918 65.0127 230.209 66.0994 229.882 67.3221C229.554 68.5448 229.624 69.8401 230.082 71.0203C230.181 71.2519 230.296 71.4761 230.427 71.6911L248.626 76.0817C249.746 76.3184 250.914 76.1004 251.873 75.4758C252.833 74.8512 253.505 73.8711 253.741 72.7511C253.978 71.6311 253.76 70.463 253.136 69.5036C252.511 68.5443 251.531 67.8724 250.411 67.6357L250.44 67.6434Z" fill="#263238" stroke="#263238" stroke-miterlimit="10" stroke-linecap="round"/>
<path d="M244.411 122.357C237.264 117.912 229.362 104.626 226.077 101.802C218.623 95.446 211.659 88.5366 205.244 81.1326C203.04 78.6214 203.177 76.5833 202.529 75.1447C201.553 73.0319 200.315 71.7514 198.817 68.1876C196.288 62.1956 200.997 58.9839 207.688 63.6922C214.379 68.4006 223.353 76.1583 223.353 76.1583C223.353 76.1583 228.235 78.8085 234.122 74.9171" fill="white"/>
<path d="M244.411 122.357C237.264 117.912 229.362 104.626 226.077 101.802C218.623 95.446 211.659 88.5366 205.244 81.1326C203.04 78.6214 203.177 76.5833 202.529 75.1447C201.553 73.0319 200.315 71.7514 198.817 68.1876C196.288 62.1956 200.997 58.9839 207.688 63.6922C214.379 68.4006 223.353 76.1583 223.353 76.1583C223.353 76.1583 228.235 78.8085 234.122 74.9171" stroke="#263238" stroke-miterlimit="10" stroke-linecap="round"/>
<path d="M202.777 63.5476L205.236 65.6564C205.236 65.6564 204.932 65.7833 203.315 67.9031C202.348 69.1654 201.716 70.6518 201.478 72.224C201.478 72.224 196.986 67.3412 198.044 64.7475C198.286 64.0953 198.741 63.5435 199.335 63.1806C199.876 62.8758 200.498 62.7474 201.115 62.8131C201.732 62.8789 202.313 63.1357 202.777 63.5476Z" fill="white" stroke="#263238" stroke-miterlimit="10" stroke-linecap="round"/>
<path d="M305.671 112.454L270.049 96.7766C270.049 96.7766 262.133 102.053 258.042 110.783C253.952 119.514 246.991 135.59 246.991 135.59L292.045 163.366" fill="#263238"/>
<path d="M305.671 112.454L270.049 96.7766C270.049 96.7766 262.133 102.053 258.042 110.783C253.952 119.514 246.991 135.59 246.991 135.59L292.045 163.366" stroke="#263238" stroke-miterlimit="10" stroke-linecap="round"/>
<path d="M256.086 134.864C255.526 134.715 255.024 134.402 254.642 133.967C254.26 133.531 254.016 132.993 253.941 132.418C253.865 131.844 253.961 131.261 254.218 130.741C254.474 130.222 254.878 129.79 255.38 129.501C255.881 129.211 256.457 129.077 257.035 129.114C257.613 129.152 258.167 129.361 258.626 129.713C259.086 130.066 259.43 130.547 259.616 131.095C259.802 131.643 259.822 132.235 259.672 132.794C259.471 133.544 258.98 134.184 258.308 134.572C257.635 134.96 256.836 135.065 256.086 134.864Z" fill="white" stroke="#263238" stroke-width="2" stroke-linecap="round" stroke-linejoin="round"/>
<path d="M210.273 72.2745L210.891 71.9238" stroke="#263238" stroke-miterlimit="10" stroke-linecap="round"/>
<path d="M205.691 78.1123C205.691 78.1123 205.13 75.7715 209.137 72.9961" stroke="#263238" stroke-miterlimit="10" stroke-linecap="round"/>
<path d="M209.826 74.5537C209.826 74.5537 209.906 75.6086 207.322 78.1405" stroke="#263238" stroke-miterlimit="10" stroke-linecap="round"/>
<path d="M208.449 71.6787C207.014 72.5724 205.803 73.7837 204.909 75.2192" stroke="#263238" stroke-miterlimit="10" stroke-linecap="round"/>
<path d="M86.7853 41.2904C86.7853 41.2904 79.8235 40.1269 75.1386 40.4837C70.4536 40.8404 66.1989 39.7929 67.942 36.1951C68.9903 34.0386 72.3113 33.3318 72.3113 33.3318C72.3113 33.3318 67.7483 35.2485 64.4028 32.362C61.0574 29.4756 69.638 24.9717 69.638 24.9717C69.638 24.9717 61.233 25.4809 61.8712 22.7826C62.5093 20.0843 66.7318 18.4312 68.4385 17.0991C70.1453 15.7669 83.0005 14.5681 85.021 12.9575C87.0415 11.3469 87.7067 3.71164 85.0352 0.296191C82.3637 -3.11926 88.1011 -7.05831 97.0583 3.00872C106.016 13.0757 110.227 24.1003 107.918 30.3001C105.609 36.4998 86.7853 41.2904 86.7853 41.2904Z" fill="white" stroke="#263238" stroke-miterlimit="10" stroke-linecap="round"/>
<path d="M75.6526 31.267L93.2835 25.7172C93.2835 25.7172 100.289 22.3416 99.0533 11.8984" stroke="#263238" stroke-miterlimit="10" stroke-linecap="round"/>
<path d="M74.8475 25.2965L88.7585 17.7395C88.7585 17.7395 94.494 13.8077 92.8372 4.64779" stroke="#263238" stroke-miterlimit="10" stroke-linecap="round"/>
<path d="M83.486 5.3516L72.6499 10.5007L61.0373 -15.6503C61.0373 -15.6503 58.3551 -28.957 56.5155 -34.1241C54.6759 -39.2913 58.0269 -63.9164 58.0269 -63.9164L86.7094 -60.9978C86.7094 -60.9978 86.125 -46.237 87.3873 -43.9242C88.6496 -41.6113 105.954 -16.5809 108.631 -13.187C111.308 -9.79314 110.872 3.78096 110.872 3.78096C110.872 3.78096 111.205 9.99444 115.173 17.8992C119.14 25.804 115.062 33.5119 111.376 35.8409C107.69 38.1699 97.4957 44.4629 91.624 44.6714C85.7524 44.8798 79.6386 44.1209 82.2562 40.4258C86.6083 34.2875 101.804 34.6028 102.207 25.8715C102.39 21.8788 96.585 9.43222 95.8498 7.80057C95.8498 7.80057 89.0727 2.63713 83.486 5.3516Z" fill="white" stroke="#263238" stroke-miterlimit="10" stroke-linecap="round"/>
<path d="M73.8849 64.0064C74.0749 64.043 74.2717 64.0099 74.4393 63.9131C74.6069 63.8164 74.734 63.6625 74.7973 63.4796L75.4357 61.4138C75.4668 61.3128 75.4778 61.2066 75.4678 61.1013C75.4579 60.996 75.4274 60.8937 75.3779 60.8003C75.3285 60.7068 75.2611 60.624 75.1797 60.5565C75.0982 60.4891 75.0043 60.4384 74.9032 60.4073C74.8022 60.3761 74.696 60.3652 74.5907 60.3751C74.4854 60.385 74.3832 60.4156 74.2897 60.465C74.1962 60.5145 74.1134 60.5819 74.046 60.6633C73.9785 60.7448 73.9278 60.8387 73.8967 60.9397L73.2583 63.0055C73.1982 63.2048 73.217 63.4196 73.3107 63.6055C73.4045 63.7914 73.566 63.9342 73.762 64.0044C73.8027 64.0095 73.8439 64.0102 73.8849 64.0064Z" fill="#263238" stroke="#263238" stroke-miterlimit="10" stroke-linecap="round"/>
<path d="M74.5967 61.6203C75.0327 61.6876 75.4785 61.5959 75.8526 61.3621C76.2267 61.1282 76.5044 60.7677 76.635 60.3462L79.2516 54.6685L100.172 -7.20121C100.34 -7.7427 100.4 -8.31196 100.347 -8.87648C100.295 -9.441 100.133 -9.98973 99.8683 -10.4913C99.6042 -10.9929 99.2437 -11.4376 98.8077 -11.7999C98.3717 -12.1623 97.8686 -12.4351 97.3271 -12.603C96.7856 -12.7709 96.2163 -12.8305 95.6518 -12.7784C95.0873 -12.7263 94.5386 -12.5635 94.037 -12.2993C93.5354 -12.0351 93.0907 -11.6747 92.7284 -11.2387C92.366 -10.8026 92.0931 -10.2995 91.9253 -9.75803L74.2304 53.6316L73.1237 59.2588C72.9802 59.7244 73.0272 60.228 73.2544 60.659C73.4815 61.09 73.8704 61.4134 74.3357 61.5581C74.4208 61.5861 74.5081 61.6069 74.5967 61.6203Z" fill="#C47E08" stroke="#263238" stroke-miterlimit="10" stroke-linecap="round"/>
<path d="M100.17 -7.20131L94.13 10.6484C92.9551 11.12 91.6607 11.2053 90.4341 10.8919C89.2076 10.5785 88.1126 9.88272 87.308 8.90536C87.1581 8.7031 87.0186 8.49325 86.8903 8.27664L91.9175 -9.73654C92.0853 -10.278 92.3582 -10.7812 92.7205 -11.2172C93.0829 -11.6532 93.5275 -12.0136 94.0291 -12.2778C94.5307 -12.542 95.0795 -12.7048 95.644 -12.7569C96.2085 -12.809 96.7778 -12.7494 97.3193 -12.5815C97.8608 -12.4137 98.3639 -12.1408 98.7999 -11.7784C99.2359 -11.4161 99.5963 -10.9715 99.8605 -10.4698C100.125 -9.96824 100.287 -9.41952 100.34 -8.855C100.392 -8.29048 100.332 -7.72122 100.164 -7.17972L100.17 -7.20131Z" fill="#263238" stroke="#263238" stroke-miterlimit="10" stroke-linecap="round"/>
<path d="M56.5143 -34.1245C57.0236 -25.7194 63.1803 -7.96452 63.2683 -3.62927C63.3562 0.705979 62.575 11.0484 65.3252 18.8043C68.0755 26.5603 70.5582 32.4937 74.5671 37.625C78.576 42.7563 83.6648 40.2016 82.815 32.0601C81.9652 23.9186 79.5388 12.2771 79.5388 12.2771C79.5388 12.2771 79.6068 6.72639 85.8766 3.47762" fill="white"/>
<path d="M56.5143 -34.1245C57.0236 -25.7194 63.1803 -7.96452 63.2683 -3.62927C63.3562 0.70598 62.575 11.0484 65.3252 18.8043C68.0755 26.5603 70.5582 32.4937 74.5671 37.625C78.576 42.7563 83.6648 40.2016 82.815 32.0601C81.9652 23.9186 79.5388 12.2771 79.5388 12.2771C79.5388 12.2771 79.6068 6.72639 85.8766 3.47762" stroke="#263238" stroke-miterlimit="10" stroke-linecap="round"/>
<path d="M80.5076 36.4163L79.8707 33.2375C79.8707 33.2375 79.607 33.4445 76.9746 33.8268C75.3977 34.0637 73.7864 33.8974 72.2911 33.3432C72.2911 33.3432 74.3665 39.6456 77.153 39.9834C77.8414 40.0889 78.5452 39.9628 79.1542 39.6249C79.6877 39.2995 80.1054 38.8147 80.3483 38.2389C80.5912 37.6631 80.6469 37.0255 80.5076 36.4163Z" fill="white" stroke="#263238" stroke-miterlimit="10" stroke-linecap="round"/>
<path d="M75.6914 20.1625L76.2969 19.8008" stroke="#263238" stroke-miterlimit="10" stroke-linecap="round"/>
<path d="M68.3527 21.3199C68.3527 21.3199 70.1288 22.9528 74.5078 20.8018" stroke="#263238" stroke-miterlimit="10" stroke-linecap="round"/>
<path d="M73.4819 19.4545C73.4819 19.4545 72.5991 18.8631 69.1357 19.8711" stroke="#263238" stroke-miterlimit="10" stroke-linecap="round"/>
<path d="M75.3203 22.0674C73.8389 22.889 72.1877 23.3573 70.4954 23.4356" stroke="#263238" stroke-miterlimit="10" stroke-linecap="round"/>
</g>
</svg>
