<svg width="278" height="586" viewBox="0 0 278 586" fill="none" xmlns="http://www.w3.org/2000/svg">
<rect width="278" height="657" fill="#0D9488"/>
<g opacity="0.4">
<path d="M418.169 344.086C431.028 264.868 377.233 190.225 298.015 177.366C218.797 164.507 144.154 218.302 131.295 297.52C118.436 376.738 172.231 451.381 251.449 464.24C330.667 477.099 405.31 423.304 418.169 344.086Z" fill="#09675F"/>
<path d="M274.636 149.372C273.766 149.372 272.93 149.03 272.31 148.419C271.69 147.809 271.334 146.979 271.32 146.109V85.8988C271.422 85.0981 271.812 84.3618 272.417 83.8281C273.023 83.2944 273.803 83 274.61 83C275.417 83 276.196 83.2944 276.802 83.8281C277.408 84.3618 277.798 85.0981 277.899 85.8988V146.109C277.899 146.974 277.555 147.804 276.944 148.416C276.332 149.028 275.502 149.372 274.636 149.372Z" fill="#09675F"/>
<path d="M187.261 172.794C186.687 172.792 186.123 172.64 185.624 172.354C185.126 172.068 184.711 171.658 184.419 171.163L154.314 119.005C153.881 118.252 153.766 117.357 153.993 116.518C154.22 115.679 154.771 114.964 155.524 114.532C156.278 114.099 157.173 113.983 158.012 114.21C158.851 114.437 159.565 114.988 159.998 115.742L190.103 167.847C190.547 168.602 190.674 169.501 190.457 170.349C190.24 171.197 189.697 171.924 188.945 172.373C188.424 172.642 187.847 172.786 187.261 172.794Z" fill="#09675F"/>
<path d="M123.307 236.743C122.739 236.728 122.181 236.584 121.676 236.322L69.5711 206.217C68.8985 205.742 68.4267 205.033 68.2475 204.23C68.0682 203.426 68.1945 202.584 68.6016 201.869C69.0087 201.153 69.6675 200.614 70.4498 200.358C71.2322 200.101 72.0822 200.145 72.8342 200.48L124.992 230.585C125.611 230.957 126.092 231.522 126.361 232.193C126.63 232.864 126.673 233.604 126.482 234.302C126.291 234.999 125.878 235.615 125.305 236.056C124.732 236.496 124.03 236.738 123.307 236.743Z" fill="#09675F"/>
<path d="M99.7847 324.105H39.7326C39.2657 324.164 38.7915 324.124 38.3416 323.985C37.8918 323.847 37.4766 323.615 37.1235 323.303C36.7704 322.992 36.4875 322.609 36.2938 322.181C36.1001 321.752 36 321.286 36 320.816C36 320.345 36.1001 319.88 36.2938 319.451C36.4875 319.022 36.7704 318.639 37.1235 318.328C37.4766 318.017 37.8918 317.785 38.3416 317.646C38.7915 317.508 39.2657 317.467 39.7326 317.526H99.7847C100.585 317.628 101.322 318.018 101.855 318.624C102.389 319.229 102.684 320.009 102.684 320.816C102.684 321.623 102.389 322.402 101.855 323.008C101.322 323.614 100.585 324.004 99.7847 324.105Z" fill="#09675F"/>
<path d="M71.2115 441.53C70.6349 441.539 70.0668 441.391 69.5667 441.104C69.0665 440.817 68.6529 440.401 68.3694 439.899C67.9304 439.138 67.8114 438.234 68.0384 437.385C68.2653 436.536 68.8198 435.813 69.58 435.372L121.685 405.32C122.058 405.035 122.488 404.832 122.946 404.726C123.404 404.619 123.879 404.611 124.34 404.703C124.802 404.794 125.238 404.982 125.621 405.255C126.004 405.528 126.324 405.879 126.561 406.285C126.798 406.691 126.946 407.142 126.995 407.61C127.044 408.077 126.993 408.55 126.845 408.996C126.698 409.443 126.457 409.852 126.139 410.199C125.821 410.545 125.433 410.819 125.001 411.004L72.8431 441.109C72.3384 441.372 71.7804 441.516 71.2115 441.53Z" fill="#09675F"/>
<path d="M157.161 527.529C156.585 527.521 156.021 527.357 155.53 527.055C155.155 526.842 154.826 526.558 154.562 526.217C154.298 525.876 154.105 525.487 153.992 525.071C153.88 524.655 153.851 524.221 153.907 523.794C153.963 523.366 154.103 522.955 154.319 522.582L184.424 470.424C184.609 469.992 184.884 469.604 185.23 469.286C185.576 468.968 185.986 468.727 186.432 468.58C186.878 468.432 187.351 468.381 187.818 468.43C188.286 468.479 188.738 468.627 189.144 468.864C189.55 469.101 189.901 469.421 190.173 469.804C190.446 470.187 190.634 470.623 190.726 471.084C190.817 471.546 190.809 472.021 190.703 472.479C190.596 472.936 190.394 473.366 190.108 473.74L160.003 525.845C159.731 526.361 159.322 526.791 158.82 527.088C158.318 527.386 157.744 527.538 157.161 527.529Z" fill="#09675F"/>
<path d="M274.636 558.997C273.757 558.997 272.913 558.648 272.292 558.026C271.67 557.404 271.32 556.56 271.32 555.681V495.471C271.422 494.67 271.812 493.934 272.417 493.4C273.023 492.867 273.803 492.572 274.61 492.572C275.417 492.572 276.196 492.867 276.802 493.4C277.408 493.934 277.798 494.67 277.899 495.471V555.681C277.899 556.551 277.557 557.387 276.947 558.007C276.336 558.628 275.506 558.983 274.636 558.997Z" fill="#09675F"/>
<path d="M245.618 285C244.035 281.512 241.773 278.374 238.962 275.772C236.151 273.169 232.849 271.153 229.25 269.843C223.292 267.938 216.936 267.647 210.829 269.001C204.81 270.139 199.293 273.118 195.04 277.527C191.234 282.137 188 287.192 185.408 292.579C185.092 293.106 185.408 295.158 186.092 294.369C189.854 290.583 194.302 287.546 199.198 285.421C203.984 282.893 209.132 281.117 214.461 280.158C218.435 279.613 222.478 279.864 226.355 280.895C229.537 281.64 232.653 282.643 235.671 283.895C238.344 285.402 240.865 287.164 243.197 289.158C245.723 290.79 246.408 286.79 245.618 285Z" fill="#D7D6D6"/>
<path d="M274.636 379.21C256.474 379.197 238.644 374.344 222.982 365.148C207.32 355.953 194.392 342.748 185.531 326.894L189.268 324.789C197.747 339.979 210.127 352.631 225.129 361.439C240.132 370.246 257.213 374.889 274.609 374.889C292.006 374.889 309.087 370.246 324.09 361.439C339.092 352.631 351.472 339.979 359.951 324.789L363.74 326.894C354.879 342.748 341.952 355.953 326.29 365.148C310.628 374.344 292.798 379.197 274.636 379.21Z" fill="#D7D6D6"/>
<path d="M178.724 331.846C179.406 330.763 180.181 329.742 181.039 328.793C182.402 327.118 184.061 325.709 185.934 324.635C187.53 323.83 189.184 323.144 190.881 322.583C191.726 322.233 192.61 321.986 193.513 321.846C194.408 321.846 195.46 321.846 196.407 321.846C197.355 321.846 197.513 324.372 196.407 324.688C194.721 325.276 193.085 325.998 191.513 326.846C190.8 327.198 190.114 327.603 189.46 328.056C189.093 328.294 188.757 328.577 188.46 328.898L187.829 329.53C187.571 329.881 187.27 330.2 186.934 330.477H186.618L186.145 330.951L185.302 331.951C184.793 332.61 184.319 333.295 183.881 334.004L183.25 335.056C182.62 336.16 181.736 337.099 180.671 337.793C180.323 338.058 179.898 338.201 179.46 338.201C179.023 338.201 178.598 338.058 178.25 337.793C176.408 335.898 177.671 333.793 178.724 331.846Z" fill="#D7D6D6"/>
</g>
</svg>
