<svg width="278" height="586" viewBox="0 0 278 586" fill="none" xmlns="http://www.w3.org/2000/svg">
<rect width="278" height="657" fill="#E8356D"/>
<g opacity="0.6">
<path d="M-60.9375 595.386C-37.2853 591.442 24.307 578.573 41.7943 569.996C138.773 523.259 185.098 361.425 185.673 359.843H263.752C263.17 361.389 253.969 387.879 215.022 461.83C190.944 505.771 156.097 535.064 114.993 559.127C44.3979 600.423 -60.9375 595.386 -60.9375 595.386Z" fill="#B71548"/>
<g opacity="0.1">
<path d="M-60.9336 595.387C-37.2814 591.443 24.3109 578.574 41.7982 569.997C138.777 523.26 185.102 361.426 185.677 359.844H263.756C263.174 361.39 253.973 387.88 215.026 461.831C190.948 505.772 156.101 535.065 114.997 559.128C44.4018 600.424 -60.9336 595.387 -60.9336 595.387Z" fill="black"/>
</g>
<path d="M167.535 351.734L185.675 359.843C185.179 361.163 161.009 485.695 87.0653 545.471C35.178 587.412 1.96978 597.259 -110.758 595.585V573.678C-47.1437 573.678 -1.76179 571.621 39.6402 550.019C133.079 501.274 167.393 352.096 167.535 351.734Z" fill="#B71548"/>
<path d="M167.535 351.734H251.687L263.754 359.843H185.675L167.535 351.734Z" fill="#B71548"/>
<path d="M231.632 299.591L286.35 368.781L157.391 368.433L231.632 299.591Z" fill="#B71548"/>
<g opacity="0.1">
<path d="M231.632 299.591L286.35 368.781L157.391 368.433L231.632 299.591Z" fill="black"/>
</g>
<path d="M157.394 368.434L138.637 359.843L212.878 291L231.635 299.591L157.394 368.434Z" fill="#B71548"/>
</g>
</svg>
