<svg width="22" height="22" viewBox="0 0 22 22" fill="none" xmlns="http://www.w3.org/2000/svg">
<path d="M9.35209 12.8319L6.98688 10.4667C6.78752 10.2674 6.54284 10.1677 6.25285 10.1677C5.96286 10.1677 5.70913 10.2764 5.49164 10.4939C5.29227 10.6933 5.19259 10.947 5.19259 11.2551C5.19259 11.5632 5.29227 11.817 5.49164 12.0164L8.59087 15.1156C8.79024 15.315 9.04398 15.4146 9.35209 15.4146C9.6602 15.4146 9.91394 15.315 10.1133 15.1156L16.2846 8.9443C16.484 8.74493 16.5837 8.50025 16.5837 8.21027C16.5837 7.92028 16.4749 7.66654 16.2574 7.44905C16.0581 7.24968 15.8043 7.15 15.4962 7.15C15.1881 7.15 14.9343 7.24968 14.735 7.44905L9.35209 12.8319ZM10.8745 21.7491C9.37022 21.7491 7.95653 21.4634 6.63346 20.8921C5.31039 20.3216 4.15951 19.547 3.1808 18.5683C2.20209 17.5895 1.42746 16.4387 0.856913 15.1156C0.285638 13.7925 0 12.3788 0 10.8745C0 9.37022 0.285638 7.95653 0.856913 6.63346C1.42746 5.31039 2.20209 4.15951 3.1808 3.1808C4.15951 2.20209 5.31039 1.4271 6.63346 0.855825C7.95653 0.285275 9.37022 0 10.8745 0C12.3788 0 13.7925 0.285275 15.1156 0.855825C16.4387 1.4271 17.5895 2.20209 18.5683 3.1808C19.547 4.15951 20.3216 5.31039 20.8921 6.63346C21.4634 7.95653 21.7491 9.37022 21.7491 10.8745C21.7491 12.3788 21.4634 13.7925 20.8921 15.1156C20.3216 16.4387 19.547 17.5895 18.5683 18.5683C17.5895 19.547 16.4387 20.3216 15.1156 20.8921C13.7925 21.4634 12.3788 21.7491 10.8745 21.7491Z" fill="#E6366E"/>
</svg>
