<svg width="171" height="137" viewBox="0 0 171 137" fill="none" xmlns="http://www.w3.org/2000/svg">
<g filter="url(#filter0_f_938_1463)">
<ellipse cx="85.5103" cy="68.4601" rx="29.3222" ry="11.8685" fill="#E8356D"/>
<path d="M86.029 63.3003L74.3287 65.2221V68.1048C74.3287 70.7712 79.3209 73.2647 86.029 73.8701C92.7372 73.2647 97.7293 70.7712 97.7293 68.1048V65.2221L86.029 63.3003ZM86.029 68.5804H95.1292C94.4402 70.5598 90.8651 72.3231 86.029 72.8756V68.5852H76.9288V65.8467L86.029 64.3525V68.5804Z" fill="white"/>
</g>
<circle cx="81.3756" cy="38" r="25" fill="#E8356D"/>
<path d="M75.6881 46.6875C75.1725 46.6875 74.7312 46.5041 74.3644 46.1372C73.9969 45.7697 73.8131 45.3281 73.8131 44.8125V35.4375C73.8131 34.9219 73.9969 34.4803 74.3644 34.1128C74.7312 33.7459 75.1725 33.5625 75.6881 33.5625H76.6256V31.6875C76.6256 30.3906 77.0828 29.285 77.9972 28.3706C78.9109 27.4569 80.0162 27 81.3131 27C82.61 27 83.7156 27.4569 84.63 28.3706C85.5437 29.285 86.0006 30.3906 86.0006 31.6875V33.5625H86.9381C87.4537 33.5625 87.8953 33.7459 88.2628 34.1128C88.6297 34.4803 88.8131 34.9219 88.8131 35.4375V44.8125C88.8131 45.3281 88.6297 45.7697 88.2628 46.1372C87.8953 46.5041 87.4537 46.6875 86.9381 46.6875H75.6881ZM81.3131 42C81.8287 42 82.2703 41.8166 82.6378 41.4497C83.0047 41.0822 83.1881 40.6406 83.1881 40.125C83.1881 39.6094 83.0047 39.1678 82.6378 38.8003C82.2703 38.4334 81.8287 38.25 81.3131 38.25C80.7975 38.25 80.3562 38.4334 79.9894 38.8003C79.6219 39.1678 79.4381 39.6094 79.4381 40.125C79.4381 40.6406 79.6219 41.0822 79.9894 41.4497C80.3562 41.8166 80.7975 42 81.3131 42ZM78.5006 33.5625H84.1256V31.6875C84.1256 30.9062 83.8522 30.2422 83.3053 29.6953C82.7584 29.1484 82.0944 28.875 81.3131 28.875C80.5319 28.875 79.8678 29.1484 79.3209 29.6953C78.774 30.2422 78.5006 30.9062 78.5006 31.6875V33.5625Z" fill="white"/>
<defs>
<filter id="filter0_f_938_1463" x="0.336262" y="0.739704" width="170.348" height="135.441" filterUnits="userSpaceOnUse" color-interpolation-filters="sRGB">
<feFlood flood-opacity="0" result="BackgroundImageFix"/>
<feBlend mode="normal" in="SourceGraphic" in2="BackgroundImageFix" result="shape"/>
<feGaussianBlur stdDeviation="27.9259" result="effect1_foregroundBlur_938_1463"/>
</filter>
</defs>
</svg>
