<svg width="30" height="30" viewBox="0 0 30 30" fill="none" xmlns="http://www.w3.org/2000/svg">
<g clip-path="url(#clip0_1_3383)">
<path d="M29.5 15C29.5 23.0081 23.0081 29.5 15 29.5C6.99187 29.5 0.5 23.0081 0.5 15C0.5 6.99187 6.99187 0.5 15 0.5C23.0081 0.5 29.5 6.99187 29.5 15Z" stroke="white"/>
<path d="M19.8787 4.60547H16.5558C14.5839 4.60547 12.3906 5.43482 12.3906 8.29318C12.4002 9.28914 12.3906 10.243 12.3906 11.3165H10.1094V14.9466H12.4612V25.397H16.7828V14.8776H19.6352L19.8932 11.3063H16.7083C16.7083 11.3063 16.7154 9.71759 16.7083 9.25623C16.7083 8.12667 17.8837 8.19136 17.9543 8.19136C18.5137 8.19136 19.6011 8.19299 19.8803 8.19136V4.60547H19.8787Z" fill="white"/>
</g>
<defs>
<clipPath id="clip0_1_3383">
<rect width="30" height="30" fill="white"/>
</clipPath>
</defs>
</svg>
