<svg width="30" height="30" viewBox="0 0 30 30" fill="none" xmlns="http://www.w3.org/2000/svg">
<path d="M15 11.625C14.3325 11.625 13.68 11.8229 13.125 12.1938C12.5699 12.5646 12.1374 13.0917 11.8819 13.7084C11.6265 14.3251 11.5596 15.0037 11.6898 15.6584C11.8201 16.3131 12.1415 16.9145 12.6135 17.3865C13.0855 17.8585 13.6869 18.1799 14.3416 18.3102C14.9963 18.4404 15.6749 18.3735 16.2916 18.1181C16.9083 17.8626 17.4354 17.4301 17.8062 16.875C18.1771 16.32 18.375 15.6675 18.375 15C18.3741 14.1052 18.0182 13.2473 17.3855 12.6145C16.7527 11.9818 15.8948 11.6259 15 11.625ZM15 17.25C14.555 17.25 14.12 17.118 13.75 16.8708C13.38 16.6236 13.0916 16.2722 12.9213 15.861C12.751 15.4499 12.7064 14.9975 12.7932 14.561C12.88 14.1246 13.0943 13.7237 13.409 13.409C13.7237 13.0943 14.1246 12.88 14.561 12.7932C14.9975 12.7064 15.4499 12.751 15.861 12.9213C16.2722 13.0916 16.6236 13.38 16.8708 13.75C17.118 14.12 17.25 14.555 17.25 15C17.25 15.5967 17.0129 16.169 16.591 16.591C16.169 17.0129 15.5967 17.25 15 17.25ZM18.375 7.6875H11.625C10.5811 7.68862 9.58018 8.10382 8.842 8.842C8.10382 9.58018 7.68862 10.5811 7.6875 11.625V18.375C7.68862 19.4189 8.10382 20.4198 8.842 21.158C9.58018 21.8962 10.5811 22.3114 11.625 22.3125H18.375C19.4189 22.3114 20.4198 21.8962 21.158 21.158C21.8962 20.4198 22.3114 19.4189 22.3125 18.375V11.625C22.3114 10.5811 21.8962 9.58018 21.158 8.842C20.4198 8.10382 19.4189 7.68862 18.375 7.6875ZM21.1875 18.375C21.1875 19.1209 20.8912 19.8363 20.3637 20.3637C19.8363 20.8912 19.1209 21.1875 18.375 21.1875H11.625C10.8791 21.1875 10.1637 20.8912 9.63626 20.3637C9.10882 19.8363 8.8125 19.1209 8.8125 18.375V11.625C8.8125 10.8791 9.10882 10.1637 9.63626 9.63626C10.1637 9.10882 10.8791 8.8125 11.625 8.8125H18.375C19.1209 8.8125 19.8363 9.10882 20.3637 9.63626C20.8912 10.1637 21.1875 10.8791 21.1875 11.625V18.375ZM19.5 11.3438C19.5 11.5106 19.4505 11.6738 19.3578 11.8125C19.2651 11.9513 19.1333 12.0594 18.9791 12.1233C18.825 12.1871 18.6553 12.2038 18.4916 12.1713C18.328 12.1387 18.1776 12.0584 18.0596 11.9404C17.9416 11.8224 17.8613 11.672 17.8287 11.5084C17.7962 11.3447 17.8129 11.175 17.8767 11.0209C17.9406 10.8667 18.0487 10.7349 18.1875 10.6422C18.3262 10.5495 18.4894 10.5 18.6562 10.5C18.88 10.5 19.0946 10.5889 19.2529 10.7471C19.4111 10.9054 19.5 11.12 19.5 11.3438Z" fill="white"/>
<circle cx="15" cy="15" r="14.5" stroke="white"/>
</svg>
