<svg width="23" height="22" viewBox="0 0 23 22" fill="none" xmlns="http://www.w3.org/2000/svg">
<rect x="0.5" width="22" height="22" rx="11" fill="#8807F7"/>
<path d="M12.795 16.6175C12.1066 16.6175 11.1325 16.1333 10.3625 13.8175L9.94247 12.5575L8.68247 12.1375C6.37247 11.3675 5.88831 10.3933 5.88831 9.70498C5.88831 9.02248 6.37247 8.04248 8.68247 7.26665L13.635 5.61581C14.8716 5.20165 15.9041 5.32415 16.54 5.95415C17.1758 6.58415 17.2983 7.62248 16.8841 8.85915L15.2333 13.8116C14.4575 16.1333 13.4833 16.6175 12.795 16.6175ZM8.95664 8.10081C7.33497 8.64331 6.75747 9.28498 6.75747 9.70498C6.75747 10.125 7.33497 10.7666 8.95664 11.3033L10.4266 11.7933C10.555 11.8341 10.66 11.9391 10.7008 12.0675L11.1908 13.5375C11.7275 15.1591 12.375 15.7366 12.795 15.7366C13.215 15.7366 13.8566 15.1591 14.3991 13.5375L16.05 8.58498C16.3475 7.68665 16.295 6.95165 15.9158 6.57248C15.5366 6.19331 14.8016 6.14665 13.9091 6.44415L8.95664 8.10081Z" fill="white"/>
<path d="M10.3975 12.4C10.2866 12.4 10.1758 12.3591 10.0883 12.2716C9.91913 12.1025 9.91913 11.8225 10.0883 11.6533L12.1766 9.55913C12.3458 9.38996 12.6258 9.38996 12.795 9.55913C12.9641 9.72829 12.9641 10.0083 12.795 10.1775L10.7066 12.2716C10.625 12.3591 10.5083 12.4 10.3975 12.4Z" fill="white"/>
</svg>
