<svg width="22" height="22" viewBox="0 0 22 22" fill="none" xmlns="http://www.w3.org/2000/svg">
<rect width="22" height="22" rx="11" fill="white"/>
<path d="M12.295 16.6176C11.6066 16.6176 10.6325 16.1334 9.86247 13.8176L9.44247 12.5576L8.18247 12.1376C5.87247 11.3676 5.38831 10.3934 5.38831 9.7051C5.38831 9.0226 5.87247 8.0426 8.18247 7.26677L13.135 5.61594C14.3716 5.20177 15.4041 5.32427 16.04 5.95427C16.6758 6.58427 16.7983 7.6226 16.3841 8.85927L14.7333 13.8118C13.9575 16.1334 12.9833 16.6176 12.295 16.6176ZM8.45664 8.10094C6.83497 8.64344 6.25747 9.2851 6.25747 9.7051C6.25747 10.1251 6.83497 10.7668 8.45664 11.3034L9.92664 11.7934C10.055 11.8343 10.16 11.9393 10.2008 12.0676L10.6908 13.5376C11.2275 15.1593 11.875 15.7368 12.295 15.7368C12.715 15.7368 13.3566 15.1593 13.8991 13.5376L15.55 8.5851C15.8475 7.68677 15.795 6.95177 15.4158 6.5726C15.0366 6.19344 14.3016 6.14677 13.4091 6.44427L8.45664 8.10094Z" fill="#8807F7"/>
<path d="M9.89747 12.4001C9.78663 12.4001 9.6758 12.3592 9.5883 12.2717C9.41913 12.1026 9.41913 11.8226 9.5883 11.6534L11.6766 9.55925C11.8458 9.39008 12.1258 9.39008 12.295 9.55925C12.4641 9.72841 12.4641 10.0084 12.295 10.1776L10.2066 12.2717C10.125 12.3592 10.0083 12.4001 9.89747 12.4001Z" fill="#8807F7"/>
</svg>
