<svg width="30" height="30" viewBox="0 0 30 30" fill="none" xmlns="http://www.w3.org/2000/svg">
<g clip-path="url(#clip0_1_3378)">
<path d="M29.5 15C29.5 23.0081 23.0081 29.5 15 29.5C6.99187 29.5 0.5 23.0081 0.5 15C0.5 6.99187 6.99187 0.5 15 0.5C23.0081 0.5 29.5 6.99187 29.5 15Z" stroke="white"/>
<path d="M23.9629 16.2078V22.392H20.3775V16.6223C20.3775 15.1736 19.8599 14.1842 18.5617 14.1842C17.571 14.1842 16.9825 14.8503 16.7226 15.4952C16.6282 15.7257 16.6039 16.0458 16.6039 16.3691V22.3917H13.0182C13.0182 22.3917 13.0663 12.6197 13.0182 11.6082H16.6041V13.1363C16.5969 13.1484 16.5867 13.1601 16.5803 13.1716H16.6041V13.1363C17.0806 12.4032 17.9304 11.355 19.8355 11.355C22.1944 11.355 23.9629 12.8962 23.9629 16.2078ZM9.26723 6.41016C8.04072 6.41016 7.23828 7.21527 7.23828 8.27306C7.23828 9.30839 8.01745 10.1368 9.22017 10.1368H9.24343C10.494 10.1368 11.2716 9.30839 11.2716 8.27306C11.2478 7.21527 10.494 6.41016 9.26723 6.41016ZM7.45139 22.392H11.0357V11.6082H7.45139V22.392Z" fill="#F1F2F2"/>
</g>
<defs>
<clipPath id="clip0_1_3378">
<rect width="30" height="30" fill="white"/>
</clipPath>
</defs>
</svg>
