<svg width="30" height="30" viewBox="0 0 30 30" fill="none" xmlns="http://www.w3.org/2000/svg">
<g clip-path="url(#clip0_1_3373)">
<path d="M29.5 15C29.5 23.0081 23.0081 29.5 15 29.5C6.99187 29.5 0.5 23.0081 0.5 15C0.5 6.99187 6.99187 0.5 15 0.5C23.0081 0.5 29.5 6.99187 29.5 15Z" stroke="white"/>
<path d="M24.187 10.779C23.5442 11.064 22.8527 11.2568 22.1275 11.3429C22.8679 10.8993 23.4361 10.1974 23.7043 9.3597C23.0115 9.77067 22.2438 10.0688 21.4275 10.2295C20.7735 9.53297 19.8416 9.09766 18.8098 9.09766C16.83 9.09766 15.2243 10.7033 15.2243 12.6831C15.2243 12.9641 15.2562 13.2376 15.3177 13.5002C12.3379 13.3507 9.6958 11.9234 7.92729 9.75356C7.61872 10.283 7.44171 10.8993 7.44171 11.5563C7.44171 12.7999 8.07516 13.8978 9.03669 14.5406C8.44923 14.5222 7.89601 14.3609 7.41283 14.0917C7.41257 14.1069 7.41257 14.1222 7.41257 14.1371C7.41257 15.8744 8.64897 17.3234 10.2889 17.6525C9.98833 17.7349 9.67094 17.7784 9.34445 17.7784C9.11289 17.7784 8.88856 17.7563 8.66983 17.7145C9.126 19.1387 10.4498 20.1753 12.0191 20.2045C10.7918 21.1663 9.24605 21.7393 7.56578 21.7393C7.277 21.7393 6.99089 21.7224 6.71094 21.689C8.29682 22.7067 10.1819 23.3 12.2066 23.3C18.8015 23.3 22.408 17.8367 22.408 13.0983C22.408 12.943 22.4045 12.7882 22.3976 12.6347C23.0987 12.1293 23.7065 11.498 24.187 10.779Z" fill="#F1F2F2"/>
</g>
<defs>
<clipPath id="clip0_1_3373">
<rect width="30" height="30" fill="white"/>
</clipPath>
</defs>
</svg>
