<svg width="172" height="137" viewBox="0 0 172 137" fill="none" xmlns="http://www.w3.org/2000/svg">
<g filter="url(#filter0_f_938_1433)">
<ellipse cx="86.1347" cy="68.4601" rx="29.3222" ry="11.8685" fill="#8807F7"/>
<path d="M86.6534 63.3003L74.9531 65.2221V68.1048C74.9531 70.7712 79.9452 73.2647 86.6534 73.8701C93.3616 73.2647 98.3537 70.7712 98.3537 68.1048V65.2221L86.6534 63.3003ZM86.6534 68.5804H95.7536C95.0646 70.5598 91.4895 72.3231 86.6534 72.8756V68.5852H77.5532V65.8467L86.6534 64.3525V68.5804Z" fill="white"/>
</g>
<circle cx="81.8125" cy="38" r="25" fill="#8807F7"/>
<path d="M80.9172 44.9875C80.7727 44.9875 80.642 44.9647 80.525 44.9192C80.4073 44.8745 80.2942 44.8069 80.1859 44.7167C79.4095 44.0306 78.7956 43.1772 78.3442 42.1567C77.8928 41.137 77.6672 40.1125 77.6672 39.0833C77.6672 38.0542 77.8928 37.0293 78.3442 36.0088C78.7956 34.9891 79.4005 34.1361 80.1588 33.45C80.2672 33.3597 80.3845 33.2875 80.5109 33.2333C80.6373 33.1792 80.7727 33.1521 80.9172 33.1521C81.0616 33.1521 81.1927 33.1792 81.3104 33.2333C81.4274 33.2875 81.5401 33.3597 81.6484 33.45C82.4248 34.1361 83.0387 34.9891 83.4901 36.0088C83.9415 37.0293 84.1672 38.0542 84.1672 39.0833C84.1672 40.1125 83.9415 41.137 83.4901 42.1567C83.0387 43.1772 82.4338 44.0306 81.6755 44.7167C81.5852 44.8069 81.4725 44.8745 81.3375 44.9192C81.2017 44.9647 81.0616 44.9875 80.9172 44.9875ZM85.2505 46.6667C84.763 46.6667 84.2892 46.6215 83.8292 46.5312C83.3684 46.441 82.9213 46.3056 82.488 46.125C83.4991 45.4569 84.3026 44.4097 84.8984 42.9833C85.4942 41.5569 85.7922 40.2569 85.7922 39.0833C85.7922 37.9097 85.4942 36.6097 84.8984 35.1833C84.3026 33.7569 83.4991 32.7097 82.488 32.0417C82.9213 31.8611 83.3684 31.7257 83.8292 31.6354C84.2892 31.5451 84.763 31.5 85.2505 31.5C87.363 31.5 89.1548 32.2356 90.626 33.7067C92.0979 35.1786 92.8338 36.9708 92.8338 39.0833C92.8338 41.1958 92.0979 42.9877 90.626 44.4588C89.1548 45.9307 87.363 46.6667 85.2505 46.6667ZM76.5838 46.6667C74.4713 46.6667 72.6795 45.9307 71.2083 44.4588C69.7364 42.9877 69.0005 41.1958 69.0005 39.0833C69.0005 36.9708 69.7364 35.1786 71.2083 33.7067C72.6795 32.2356 74.4713 31.5 76.5838 31.5C77.0713 31.5 77.5451 31.5451 78.0052 31.6354C78.4659 31.7257 78.913 31.8611 79.3463 32.0417C78.3352 32.7097 77.5317 33.7569 76.9359 35.1833C76.3401 36.6097 76.0422 37.9097 76.0422 39.0833C76.0422 40.2569 76.3401 41.5569 76.9359 42.9833C77.5317 44.4097 78.3352 45.4569 79.3463 46.125C78.913 46.3056 78.4659 46.441 78.0052 46.5312C77.5451 46.6215 77.0713 46.6667 76.5838 46.6667Z" fill="white"/>
<defs>
<filter id="filter0_f_938_1433" x="0.960651" y="0.739704" width="170.348" height="135.441" filterUnits="userSpaceOnUse" color-interpolation-filters="sRGB">
<feFlood flood-opacity="0" result="BackgroundImageFix"/>
<feBlend mode="normal" in="SourceGraphic" in2="BackgroundImageFix" result="shape"/>
<feGaussianBlur stdDeviation="27.9259" result="effect1_foregroundBlur_938_1433"/>
</filter>
</defs>
</svg>
