<svg width="24" height="23" viewBox="0 0 24 23" fill="none" xmlns="http://www.w3.org/2000/svg">
<g filter="url(#filter0_b_1_14622)">
<rect x="0.666992" width="22.6667" height="22.6667" rx="11.3333" fill="#F0FDF4"/>
</g>
<g clip-path="url(#clip0_1_14622)">
<path d="M10.5783 11.039C10.5783 10.0906 11.3469 9.32166 12.2953 9.32166C13.2436 9.32166 14.0127 10.0906 14.0127 11.039C14.0127 11.9873 13.2436 12.7563 12.2953 12.7563C11.3469 12.7563 10.5783 11.9873 10.5783 11.039ZM9.64993 11.039C9.64993 12.4999 10.8342 13.6842 12.2953 13.6842C13.7563 13.6842 14.9406 12.4999 14.9406 11.039C14.9406 9.578 13.7563 8.39373 12.2953 8.39373C10.8342 8.39373 9.64993 9.578 9.64993 11.039ZM14.4271 8.28884C14.427 8.63025 14.7037 8.90713 15.0451 8.90727C15.3865 8.90741 15.6634 8.63075 15.6636 8.28934C15.6637 7.94792 15.387 7.67104 15.0456 7.67091C14.7043 7.67107 14.4274 7.94759 14.4271 8.28884ZM10.214 15.2322C9.71171 15.2093 9.43871 15.1256 9.25729 15.055C9.01676 14.9613 8.84515 14.8498 8.66471 14.6696C8.48428 14.4895 8.37259 14.318 8.27937 14.0775C8.20864 13.8962 8.12498 13.6231 8.10215 13.1208C8.07717 12.5778 8.07218 12.4147 8.07218 11.039C8.07218 9.66331 8.07758 9.50064 8.10215 8.95718C8.12502 8.45493 8.2093 8.18239 8.27937 8.00052C8.373 7.76001 8.48453 7.5884 8.66471 7.40797C8.8449 7.22755 9.01635 7.11586 9.25729 7.02264C9.43863 6.95192 9.71171 6.86826 10.214 6.84543C10.757 6.82045 10.9201 6.81547 12.2953 6.81547C13.6704 6.81547 13.8337 6.82086 14.3772 6.84543C14.8795 6.8683 15.152 6.95258 15.3339 7.02264C15.5744 7.11586 15.746 7.22779 15.9265 7.40797C16.1069 7.58815 16.2182 7.76001 16.3118 8.00052C16.3825 8.18185 16.4662 8.45493 16.489 8.95718C16.514 9.50064 16.519 9.66331 16.519 11.039C16.519 12.4147 16.514 12.5774 16.489 13.1208C16.4662 13.6231 16.3821 13.8961 16.3118 14.0775C16.2182 14.318 16.1066 14.4896 15.9265 14.6696C15.7463 14.8496 15.5744 14.9613 15.3339 15.055C15.1525 15.1257 14.8795 15.2093 14.3772 15.2322C13.8342 15.2572 13.671 15.2621 12.2953 15.2621C10.9195 15.2621 10.7568 15.2572 10.214 15.2322ZM10.1713 5.91865C9.62289 5.94362 9.24814 6.03058 8.92086 6.15793C8.58192 6.28943 8.29499 6.46586 8.00826 6.75212C7.72154 7.03838 7.54555 7.32575 7.41404 7.66468C7.28669 7.99215 7.19973 8.36669 7.17475 8.9151C7.14937 9.46438 7.14355 9.63998 7.14355 11.039C7.14355 12.438 7.14937 12.6136 7.17475 13.1628C7.19973 13.7113 7.28669 14.0858 7.41404 14.4133C7.54555 14.752 7.72158 15.0397 8.00826 15.3258C8.29494 15.6119 8.58192 15.7881 8.92086 15.92C9.24875 16.0474 9.62289 16.1343 10.1713 16.1593C10.7209 16.1843 10.8962 16.1905 12.2953 16.1905C13.6943 16.1905 13.8699 16.1847 14.4192 16.1593C14.9677 16.1343 15.3422 16.0474 15.6697 15.92C16.0084 15.7881 16.2956 15.6121 16.5823 15.3258C16.869 15.0396 17.0446 14.752 17.1765 14.4133C17.3039 14.0858 17.3912 13.7112 17.4158 13.1628C17.4408 12.6131 17.4466 12.438 17.4466 11.039C17.4466 9.63998 17.4408 9.46438 17.4158 8.9151C17.3908 8.36665 17.3039 7.99195 17.1765 7.66468C17.0446 7.32596 16.8686 7.03884 16.5823 6.75212C16.296 6.46541 16.0084 6.28943 15.6701 6.15793C15.3422 6.03058 14.9677 5.94321 14.4196 5.91865C13.8703 5.89367 13.6947 5.88745 12.2957 5.88745C10.8966 5.88745 10.7209 5.89326 10.1713 5.91865Z" fill="#22C55E"/>
</g>
<defs>
<filter id="filter0_b_1_14622" x="-117.082" y="-117.749" width="258.165" height="258.165" filterUnits="userSpaceOnUse" color-interpolation-filters="sRGB">
<feFlood flood-opacity="0" result="BackgroundImageFix"/>
<feGaussianBlur in="BackgroundImageFix" stdDeviation="58.8745"/>
<feComposite in2="SourceAlpha" operator="in" result="effect1_backgroundBlur_1_14622"/>
<feBlend mode="normal" in="SourceGraphic" in2="effect1_backgroundBlur_1_14622" result="shape"/>
</filter>
<clipPath id="clip0_1_14622">
<rect width="10.303" height="10.303" fill="white" transform="translate(7.15137 5.88745)"/>
</clipPath>
</defs>
</svg>
