<svg width="23" height="23" viewBox="0 0 23 23" fill="none" xmlns="http://www.w3.org/2000/svg">
<g filter="url(#filter0_b_1_14628)">
<rect x="0.333008" width="22.6667" height="22.6667" rx="11.3333" fill="#F0FDF4"/>
</g>
<g clip-path="url(#clip0_1_14628)">
<path d="M17.8168 7.81531C17.4171 7.99267 16.9878 8.11257 16.5364 8.16646C16.9971 7.89061 17.35 7.45348 17.5167 6.93322C17.0791 7.19313 16.6001 7.3761 16.1007 7.4742C15.6943 7.04098 15.1147 6.77051 14.4735 6.77051C13.2428 6.77051 12.2447 7.76824 12.2447 8.99969C12.2447 9.17418 12.2643 9.3444 12.3021 9.50784C10.4494 9.41473 8.80685 8.52726 7.7074 7.17875C7.51543 7.50809 7.40554 7.89101 7.40554 8.29957C7.40554 9.07287 7.79914 9.75515 8.3972 10.1548C8.04315 10.1438 7.69688 10.0483 7.38733 9.87611V9.90428C7.38733 10.9844 8.15561 11.8851 9.17547 12.09C8.98812 12.1413 8.79151 12.1681 8.58811 12.1681C8.4443 12.1681 8.30478 12.1545 8.16847 12.1289C8.45215 13.0142 9.27543 13.6586 10.2506 13.6769C9.48769 14.2749 8.52636 14.6314 7.48225 14.6314C7.30241 14.6314 7.12468 14.6207 6.9502 14.5997C7.93687 15.2323 9.1084 15.6017 10.3673 15.6017C14.4675 15.6017 16.7099 12.2049 16.7099 9.25915C16.7099 9.16244 16.7077 9.06645 16.7031 8.9708C17.14 8.6548 17.5171 8.26353 17.8168 7.81531Z" fill="#22C55E"/>
</g>
<defs>
<filter id="filter0_b_1_14628" x="-117.416" y="-117.749" width="258.165" height="258.165" filterUnits="userSpaceOnUse" color-interpolation-filters="sRGB">
<feFlood flood-opacity="0" result="BackgroundImageFix"/>
<feGaussianBlur in="BackgroundImageFix" stdDeviation="58.8745"/>
<feComposite in2="SourceAlpha" operator="in" result="effect1_backgroundBlur_1_14628"/>
<feBlend mode="normal" in="SourceGraphic" in2="effect1_backgroundBlur_1_14628" result="shape"/>
</filter>
<clipPath id="clip0_1_14628">
<rect width="11.039" height="8.83117" fill="white" transform="translate(6.9502 6.77051)"/>
</clipPath>
</defs>
</svg>
