<svg width="32" height="32" viewBox="0 0 32 32" fill="none" xmlns="http://www.w3.org/2000/svg">
<path d="M14.6673 26.8L25.6007 15.8666C26.2673 15.2 27.0673 14.8 28.0007 14.8C28.934 14.8 29.734 15.2 30.4007 15.8666L30.6673 16.1333V5.33329C30.6673 3.86663 29.4673 2.66663 28.0007 2.66663H4.00065C2.53398 2.66663 1.33398 3.86663 1.33398 5.33329V26.6666C1.33398 28.1333 2.53398 29.3333 4.00065 29.3333H14.6673V26.8ZM4.00065 5.33329H28.0007V9.33329H4.00065V5.33329ZM28.0007 17.4666C27.8673 17.4666 27.6007 17.6 27.4673 17.7333L26.134 19.0666L28.934 21.8666L30.2673 20.5333C30.534 20.2666 30.534 19.7333 30.2673 19.4666L28.534 17.7333C28.4007 17.6 28.2673 17.4666 28.0007 17.4666ZM25.4673 19.8666L17.334 27.8666V30.6666H20.134L28.2673 22.5333L25.4673 19.8666Z" fill="#3D0072"/>
</svg>
