<svg width="36" height="36" viewBox="0 0 36 36" fill="none" xmlns="http://www.w3.org/2000/svg">
<path d="M17.9998 15.7555C20.9208 15.7555 23.2887 13.4174 23.2887 10.5333C23.2887 7.6491 20.9208 5.31104 17.9998 5.31104C15.0789 5.31104 12.7109 7.6491 12.7109 10.5333C12.7109 13.4174 15.0789 15.7555 17.9998 15.7555Z" fill="#3D0072"/>
<path d="M9.97823 11.0555H10.5116V10.5777C10.5148 9.18839 10.9068 7.82769 11.6431 6.64953C12.3795 5.47137 13.4308 4.52278 14.6782 3.91106C14.3089 3.06058 13.7162 2.32599 12.9629 1.78533C12.2097 1.24466 11.3241 0.918109 10.4001 0.840351C9.47619 0.762593 8.54844 0.936533 7.71542 1.3437C6.8824 1.75086 6.17521 2.37605 5.66897 3.15285C5.16272 3.92965 4.87632 4.82907 4.84019 5.75556C4.80406 6.68206 5.01954 7.60105 5.46376 8.41492C5.90797 9.22879 6.56432 9.90715 7.3631 10.3779C8.16189 10.8487 9.07327 11.0944 10.0005 11.0888L9.97823 11.0555ZM25.5116 10.5333V11.0111H26.0449C26.9597 11.0019 27.8552 10.7462 28.637 10.2711C29.4188 9.79587 30.058 9.11871 30.4874 8.31085C30.9168 7.50299 31.1205 6.59431 31.077 5.68046C31.0335 4.76661 30.7444 3.88139 30.2402 3.11797C29.736 2.35455 29.0354 1.74117 28.212 1.34239C27.3885 0.943619 26.4729 0.774196 25.5613 0.851958C24.6497 0.92972 23.776 1.25179 23.032 1.78427C22.288 2.31675 21.7014 3.03994 21.3338 3.87773C22.5816 4.48706 23.6341 5.43325 24.3724 6.60937C25.1106 7.78549 25.5052 9.14466 25.5116 10.5333ZM22.7671 16.2777C24.9763 16.715 27.1124 17.4632 29.1116 18.5C29.3932 18.6547 29.6483 18.8535 29.8671 19.0888H35.7782V15.2888C35.7793 15.1431 35.7406 14.9998 35.6661 14.8745C35.5917 14.7492 35.4845 14.6466 35.356 14.5777C32.4762 13.0714 29.2726 12.2896 26.0227 12.3H25.2893C24.9043 13.8652 24.0187 15.2619 22.7671 16.2777ZM5.25601 21.2444C5.25398 20.6848 5.40511 20.1353 5.69301 19.6555C5.98092 19.1756 6.39464 18.7837 6.88935 18.5222C8.88855 17.4854 11.0246 16.7372 13.2338 16.3C11.9883 15.2928 11.1033 13.9086 10.7116 12.3555H9.97823C6.72826 12.3452 3.52473 13.127 0.644901 14.6333C0.516421 14.7021 0.409185 14.8047 0.334772 14.9301C0.26036 15.0554 0.2216 15.1986 0.222678 15.3444V22.4444H5.25601V21.2444ZM21.8449 27.6555H28.4671V29.2111H21.8449V27.6555Z" fill="#3D0072"/>
<path d="M34.4563 21.6222H26.823V20.5111C26.823 20.2164 26.7059 19.9338 26.4975 19.7254C26.2892 19.517 26.0066 19.3999 25.7119 19.3999C25.4172 19.3999 25.1346 19.517 24.9262 19.7254C24.7178 19.9338 24.6008 20.2164 24.6008 20.5111V21.6222H22.4452V18.4777C20.9833 18.1707 19.4945 18.0107 18.0008 17.9999C14.4938 17.9853 11.037 18.8324 7.93409 20.4666C7.79588 20.5383 7.68019 20.6468 7.5998 20.7802C7.5194 20.9135 7.47743 21.0665 7.47854 21.2222V27.4555H15.3785V34.2222C15.3785 34.5168 15.4956 34.7995 15.704 35.0078C15.9123 35.2162 16.195 35.3333 16.4896 35.3333H34.4563C34.751 35.3333 35.0336 35.2162 35.242 35.0078C35.4504 34.7995 35.5674 34.5168 35.5674 34.2222V22.7333C35.5674 22.4386 35.4504 22.156 35.242 21.9476C35.0336 21.7392 34.751 21.6222 34.4563 21.6222ZM33.3452 33.1333H17.6008V23.8444H24.6008V24.8555C24.6008 25.1502 24.7178 25.4328 24.9262 25.6412C25.1346 25.8495 25.4172 25.9666 25.7119 25.9666C26.0066 25.9666 26.2892 25.8495 26.4975 25.6412C26.7059 25.4328 26.823 25.1502 26.823 24.8555V23.8444H33.3452V33.1333Z" fill="#3D0072"/>
</svg>
