<svg width="50" height="50" viewBox="0 0 50 50" fill="none" xmlns="http://www.w3.org/2000/svg">
<g clip-path="url(#clip0_1_14633)">
<mask id="mask0_1_14633" style="mask-type:luminance" maskUnits="userSpaceOnUse" x="0" y="0" width="50" height="50">
<path d="M50 0H0V50H50V0Z" fill="white"/>
</mask>
<g mask="url(#mask0_1_14633)">
<path d="M32.0215 36.7179C32.0215 36.7179 30.2314 37.3974 24.7765 32.7982C19.2455 28.1347 19.6889 26.3196 19.6889 26.3196C19.6889 26.3196 21.4612 25.6251 26.9339 30.2395C32.4471 34.8879 32.0215 36.7179 32.0215 36.7179Z" fill="#FFDE55"/>
<path d="M29.2854 35.966C28.8067 35.7179 28.2557 35.3935 27.6259 34.9712C28.2555 35.3935 28.8063 35.7179 29.2849 35.9662L29.2854 35.966Z" fill="#FFD41F"/>
<path d="M26.1721 33.923C26.3687 34.074 26.5594 34.217 26.7444 34.3526C26.5595 34.2171 26.3687 34.074 26.1721 33.923Z" fill="#FFD41F"/>
<path d="M24.2549 38.5591C21.855 37.4912 19.1794 35.847 17.4105 34.2263L16.5235 37.2904C17.888 38.4332 19.5995 39.3877 21.378 40.0399L24.2549 38.5591Z" fill="#FFDC0D"/>
<path d="M15.6781 40.1881L14.7318 43.457L18.17 41.6874C17.2965 41.2873 16.3996 40.7617 15.6781 40.1881Z" fill="#FFDC0D"/>
<path d="M27.3407 34.7802C27.3415 34.7807 27.3423 34.7813 27.343 34.7818C27.3422 34.7814 27.3415 34.7807 27.3407 34.7802Z" fill="#FFA022"/>
<path d="M24.2472 38.5591L29.2847 35.9664C28.806 35.7181 28.2553 35.3937 27.6257 34.9713C27.6234 34.9698 27.6212 34.9682 27.6189 34.9667C27.5298 34.9068 27.4392 34.8453 27.3469 34.7815C27.3463 34.7811 27.3457 34.7806 27.3452 34.7801C27.2538 34.7169 27.1608 34.6517 27.0663 34.5845C27.0637 34.5827 27.0612 34.5811 27.0587 34.5792C26.9679 34.5146 26.8754 34.4479 26.7817 34.3795C26.7696 34.3707 26.7574 34.3616 26.7453 34.3528C26.5603 34.2172 26.3695 34.0742 26.173 33.9233C26.1563 33.9104 26.1397 33.8977 26.1228 33.8847C26.0271 33.811 25.9302 33.7355 25.8317 33.658C25.8181 33.6472 25.8043 33.6361 25.7907 33.6253C25.6996 33.5534 25.6074 33.4798 25.514 33.4046C25.4987 33.3923 25.4835 33.3802 25.4681 33.3679C25.3685 33.2873 25.2673 33.2046 25.1648 33.1202C25.1427 33.1019 25.1204 33.0835 25.098 33.065C24.9927 32.9779 24.8863 32.8894 24.778 32.7982C19.4199 28.2805 19.669 26.4362 19.6895 26.325L17.4027 34.2263C19.1717 35.847 21.8474 37.4912 24.2472 38.5591Z" fill="#22C55E"/>
<path d="M21.3769 40.0399C19.5984 39.3878 17.887 38.4333 16.5224 37.2905L15.684 40.1882C16.4055 40.7618 17.3025 41.2873 18.1759 41.6875L21.3769 40.0399Z" fill="#22C55E"/>
<path d="M31.9533 36.7351C31.7278 36.776 30.9329 36.8214 29.285 35.9662L29.2846 35.9664C30.9326 36.8212 31.7279 36.7765 31.9533 36.7351Z" fill="#FFD41F"/>
<path d="M31.9533 36.7351C31.7278 36.776 30.9329 36.8214 29.2851 35.9661L29.2847 35.9663C30.9327 36.8212 31.7279 36.7765 31.9533 36.7351Z" fill="#FFF4C7"/>
<path d="M14.7336 43.4571L14.1851 45.3531L20.279 42.3984C19.6842 42.2926 18.937 42.0382 18.1718 41.6875L14.7336 43.4571Z" fill="#FFD41F"/>
<path d="M14.7336 43.4571L14.1851 45.3531L20.279 42.3984C19.6842 42.2926 18.937 42.0382 18.1718 41.6875L14.7336 43.4571Z" fill="#F9CA06"/>
<path d="M21.3775 40.04C22.1631 40.328 22.9617 40.5576 23.7495 40.7174L26.4697 39.3984C25.7878 39.1937 25.0356 38.9068 24.2544 38.5592L21.3775 40.04Z" fill="#FFD41F"/>
<path d="M21.3775 40.04C22.1631 40.328 22.9617 40.5576 23.7495 40.7174L26.4697 39.3984C25.7878 39.1937 25.0356 38.9068 24.2544 38.5592L21.3775 40.04Z" fill="#F9CA06"/>
<path d="M29.2804 35.9663L24.2429 38.559C25.0241 38.9067 25.7762 39.1935 26.4581 39.3983L31.9489 36.735C31.7236 36.7765 30.9284 36.8211 29.2804 35.9663Z" fill="#FFA022"/>
<path d="M29.2804 35.9663L24.2429 38.559C25.0241 38.9067 25.7762 39.1935 26.4581 39.3983L31.9489 36.735C31.7236 36.7765 30.9284 36.8211 29.2804 35.9663Z" fill="#22C55E"/>
<path d="M18.1692 41.6874C18.9345 42.0381 19.6816 42.2925 20.2764 42.3983L20.2769 42.3976L23.7421 40.7173C22.9543 40.5575 22.1558 40.3279 21.3702 40.0399L18.1692 41.6874Z" fill="#FFA022"/>
<path d="M18.1692 41.6874C18.9345 42.0381 19.6816 42.2925 20.2764 42.3983L20.2769 42.3976L23.7421 40.7173C22.9543 40.5575 22.1558 40.3279 21.3702 40.0399L18.1692 41.6874Z" fill="#22C55E"/>
<path d="M21.4434 17.0381C21.2981 16.7011 21.1184 16.4102 20.8985 16.1817" stroke="#22C55E" stroke-width="0.192732"/>
<path d="M28.4492 13.0105C28.2878 12.6809 28.0943 12.3991 27.8635 12.1815" stroke="#22C55E" stroke-width="0.192732"/>
<path d="M29.3193 23.4844C29.2786 22.5094 29.0868 21.649 28.6546 21.0796" stroke="#22C55E" stroke-width="0.192732"/>
<path d="M34.3086 15.6074C34.4489 14.6418 34.4195 13.7607 34.1001 13.1212" stroke="#22C55E" stroke-width="0.192732"/>
<path d="M44.141 25.1174C44.5484 25.048 44.9501 25.0024 45.3867 24.9545" stroke="#22C55E" stroke-width="0.192732"/>
<path d="M37.3027 19.5911C37.3916 19.2698 37.462 18.9235 37.5149 18.5379" stroke="#22C55E" stroke-width="0.192732"/>
<path d="M34.0002 33.5306C34.2431 33.4799 34.5014 33.4285 34.7844 33.3713" stroke="#22C55E" stroke-width="0.192732"/>
<path d="M41.2951 32.5606C41.5802 32.5204 41.8687 32.488 42.174 32.4545" stroke="#22C55E" stroke-width="0.192732"/>
<path d="M38.3223 10.5959C38.62 9.66669 38.7364 8.79287 38.5269 8.10939" stroke="#22C55E" stroke-width="0.192732"/>
<path d="M39.3384 6.61685L38.7781 6.94012L38.7268 7.58495L38.2462 7.15197L37.6171 7.30244L37.8803 6.71157L37.5428 6.15973L38.1861 6.22754L38.6067 5.73602L38.741 6.36879L39.3384 6.61685Z" fill="#FFC13E"/>
<g opacity="0.5762">
<path d="M28.2132 10.9569L27.5587 11.4665L27.6074 12.2945L26.9206 11.8295L26.1481 12.1317L26.3782 11.3348L25.852 10.6935L26.681 10.666L27.1283 9.9675L27.4106 10.7474L28.2132 10.9569Z" fill="#E12675"/>
</g>
<g opacity="0.593921">
<path d="M37.0301 17.7611L37.2703 17.3254L37.0475 16.8805L37.5362 16.9743L37.8904 16.6249L37.9522 17.1186L38.3939 17.3476L37.9435 17.5589L37.8623 18.0497L37.5221 17.6867L37.0301 17.7611Z" fill="#E12675"/>
</g>
<g opacity="0.77275">
<path d="M27.652 16.7738L28.2437 17.9631L29.5109 18.1276L28.6179 19.0835L28.8633 20.3997L27.7197 19.8012L26.604 20.4502L26.7902 19.1244L25.8554 18.2093L27.1141 17.9884L27.652 16.7738Z" fill="#7F1BDD"/>
</g>
<g opacity="0.83059">
<path d="M35.6791 32.6294L35.8823 33.0396L36.3354 33.1048L36.008 33.4248L36.0861 33.8759L35.6806 33.6635L35.2757 33.8771L35.3524 33.4258L35.0241 33.1067L35.4771 33.0402L35.6791 32.6294Z" fill="#F83CBF"/>
</g>
<g opacity="0.83059">
<path d="M44.5033 15.6294L44.7065 16.0396L45.1596 16.1048L44.8323 16.4248L44.9103 16.8759L44.5048 16.6635L44.0999 16.8771L44.1766 16.4258L43.8484 16.1067L44.3013 16.0402L44.5033 15.6294Z" fill="#22C55E"/>
</g>
<g opacity="0.83059">
<path d="M46.5082 24.1294L46.7114 24.5396L47.1645 24.6048L46.8371 24.9248L46.9152 25.3759L46.5097 25.1635L46.1048 25.3771L46.1815 24.9258L45.8532 24.6067L46.3062 24.5402L46.5082 24.1294Z" fill="#22C55E"/>
</g>
<g opacity="0.380738">
<path d="M39.2512 24.2389L39.5189 24.6583L40.0161 24.6756L39.7 25.0597L39.8373 25.538L39.3742 25.356L38.9618 25.6343L38.9918 25.1377L38.5996 24.8315L39.0812 24.7065L39.2512 24.2389Z" fill="#7F1BDD"/>
</g>
<g opacity="0.693921">
<path d="M31.6774 24.7358L31.8982 25.1816L32.3907 25.2524L32.0349 25.6002L32.1198 26.0905L31.679 25.8596L31.239 26.0918L31.3224 25.6013L30.9656 25.2545L31.4579 25.1823L31.6774 24.7358Z" fill="#DDB41B"/>
</g>
<path d="M44.2426 32.2869L43.7195 32.5887L43.6716 33.1907L43.2229 32.7865L42.6356 32.9269L42.8814 32.3753L42.5663 31.8601L43.1669 31.9234L43.5595 31.4646L43.6849 32.0553L44.2426 32.2869Z" fill="#DDB41B"/>
<g opacity="0.656773">
<path d="M44.3743 6.4032L44.5804 6.85605L45.0703 6.94299L44.7033 7.27892L44.772 7.77169L44.3391 7.52646L43.8916 7.74407L43.9911 7.25658L43.6459 6.8983L44.1402 6.84224L44.3743 6.4032Z" fill="#E12675"/>
</g>
<path d="M34.4158 12.8717L33.8621 12.4862L33.2307 12.7238L33.4263 12.0782L33.0052 11.5511L33.6797 11.5375L34.0509 10.9742L34.2722 11.6115L34.9226 11.7904L34.3849 12.1978L34.4158 12.8717Z" fill="#7C50F0"/>
<g opacity="0.550314">
<path d="M20.5538 16.2202L20.3534 15.7648L19.8646 15.6718L20.2358 15.3405L20.1732 14.8469L20.603 15.0975L21.0531 14.8855L20.9476 15.3717L21.2883 15.7343L20.7933 15.7841L20.5538 16.2202Z" fill="#F9D022"/>
</g>
<path d="M31.8807 36.7538L26.3535 39.4602L23.6152 40.8005L20.1271 42.508L20.1266 42.5087L13.9923 45.5113L14.5526 43.6014L15.5191 40.3085L16.3755 37.3894L17.2815 34.3027L19.6172 26.3433C19.5961 26.4553 19.3368 28.3116 24.6949 32.8293C26.6309 34.4616 28.1069 35.4273 29.2051 35.9936C30.8556 36.8457 31.654 36.7961 31.8807 36.7538Z" fill="#FFD41F"/>
<path d="M31.8807 36.7538L26.3535 39.4602C23.5692 38.6355 19.6255 36.452 17.2815 34.3027L19.6172 26.3433C19.5961 26.4553 19.3368 28.3116 24.6949 32.8293C29.5402 36.9146 31.5034 36.825 31.8807 36.7538Z" fill="#FFA022"/>
<path d="M23.6147 40.8006L20.1266 42.5081L20.126 42.5088C18.8482 42.2873 16.8727 41.3843 15.5186 40.3086L16.375 37.3895C18.3424 39.0369 21.0352 40.2887 23.6147 40.8006Z" fill="#FFA022"/>
<path d="M31.8853 36.7538L26.3581 39.4601L23.6199 40.8005L20.1317 42.508L20.1312 42.5086L13.997 45.5113L14.5572 43.6014L29.2097 35.9935C30.8602 36.8456 31.6586 36.796 31.8853 36.7538Z" fill="#FFF4C7"/>
<path d="M31.8807 36.7538L26.3535 39.4602L23.6152 40.8005L20.1271 42.508L20.1266 42.5087L13.9923 45.5113L14.5526 43.6014L15.5191 40.3085L16.3755 37.3894L17.2815 34.3027L19.6172 26.3433C19.5961 26.4553 19.3368 28.3116 24.6949 32.8293C26.6309 34.4616 28.1069 35.4273 29.2051 35.9936C30.8556 36.8457 31.654 36.7961 31.8807 36.7538Z" fill="#FFD41F"/>
<path d="M31.8807 36.7538L26.3535 39.4602C23.5692 38.6355 19.6255 36.452 17.2815 34.3027L19.6172 26.3433C19.5961 26.4553 19.3368 28.3116 24.6949 32.8293C29.5402 36.9146 31.5034 36.825 31.8807 36.7538Z" fill="#FFA022"/>
<path d="M23.6147 40.8006L20.1266 42.5081L20.126 42.5088C18.8482 42.2873 16.8727 41.3843 15.5186 40.3086L16.375 37.3895C18.3424 39.0369 21.0352 40.2887 23.6147 40.8006Z" fill="#FFA022"/>
<path d="M14.5546 43.6014L13.9944 45.5113L20.1286 42.5087C19.5318 42.4053 18.7828 42.1531 18.0161 41.8042L14.5546 43.6014Z" fill="#F4CA19"/>
<path d="M21.2396 40.1309C22.0271 40.4167 22.8279 40.6437 23.6182 40.8006L26.3564 39.4602C25.6727 39.2577 24.9188 38.9728 24.136 38.627L21.2396 40.1309Z" fill="#F4CA19"/>
<path d="M29.2086 35.9938L24.1369 38.627C24.9197 38.9728 25.6735 39.2577 26.3573 39.4602L31.8845 36.7538C31.6579 36.7966 30.8592 36.8455 29.2086 35.9938Z" fill="#FC961D"/>
<path d="M18.016 41.8041C18.7827 42.1531 19.5317 42.4053 20.1284 42.5087L20.129 42.5081L23.6171 40.8006C22.8268 40.6437 22.026 40.4168 21.2386 40.1309L18.016 41.8041Z" fill="#FC961D"/>
<path d="M29.2102 35.9936C28.7307 35.7464 28.1791 35.4229 27.5487 35.0012C28.1789 35.4228 28.7303 35.7464 29.2097 35.9938L29.2102 35.9936Z" fill="#FFD41F"/>
<path d="M26.085 33.9541C26.2816 34.105 26.4724 34.2479 26.6575 34.3833C26.4725 34.248 26.2816 34.105 26.085 33.9541Z" fill="#FFD41F"/>
<path d="M24.1309 38.627C21.7263 37.5647 19.0475 35.9241 17.2793 34.3026L16.3733 37.3894C17.7379 38.5321 19.4517 39.4837 21.2345 40.1309L24.1309 38.627Z" fill="#FFDC0D"/>
<path d="M15.5208 40.3084L14.5542 43.6013L18.0157 41.8041C17.1406 41.4059 16.2425 40.8817 15.5208 40.3084Z" fill="#FFDC0D"/>
<path d="M27.2762 34.8102C27.277 34.8108 27.2779 34.8113 27.2785 34.8119C27.2778 34.8114 27.277 34.8108 27.2762 34.8102Z" fill="#FFA022"/>
<path d="M24.1331 38.627L29.2047 35.9938C28.7252 35.7465 28.1738 35.4229 27.5437 35.0012C27.5414 34.9997 27.5392 34.9981 27.5369 34.9965C27.4477 34.9368 27.357 34.8753 27.2647 34.8116C27.2641 34.8112 27.2635 34.8107 27.2629 34.8103C27.1715 34.7472 27.0785 34.682 26.9839 34.6149C26.9813 34.6131 26.9788 34.6114 26.9762 34.6096C26.8854 34.5451 26.7928 34.4784 26.6991 34.4101C26.687 34.4012 26.6748 34.3922 26.6627 34.3834C26.4776 34.2479 26.2867 34.105 26.0901 33.9542C26.0734 33.9414 26.0567 33.9286 26.0399 33.9157C25.9442 33.842 25.8473 33.7665 25.7487 33.689C25.7351 33.6782 25.7213 33.6672 25.7077 33.6564C25.6166 33.5844 25.5244 33.5109 25.4309 33.4357C25.4156 33.4234 25.4004 33.4114 25.385 33.399C25.2853 33.3185 25.1841 33.2358 25.0817 33.1514C25.0596 33.1331 25.0373 33.1147 25.0149 33.0962C24.9095 33.0091 24.8031 32.9207 24.6949 32.8294C19.3368 28.3117 19.5961 26.4553 19.6172 26.3433L17.2814 34.3027C19.0497 35.9242 21.7285 37.5648 24.1331 38.627Z" fill="#22C55E"/>
<path d="M21.2334 40.1307C19.4506 39.4836 17.7368 38.532 16.3722 37.3892L15.5158 40.3083C16.2375 40.8817 17.1356 41.4058 18.0107 41.804L21.2334 40.1307Z" fill="#22C55E"/>
<path d="M31.8849 36.7537C31.6582 36.7959 30.8598 36.8456 29.2093 35.9935L29.2089 35.9937C30.8596 36.8454 31.6584 36.7964 31.8849 36.7537Z" fill="#FFD41F"/>
<path d="M31.8849 36.7539C31.6582 36.7962 30.8599 36.8458 29.2094 35.9937L29.2089 35.9939C30.8596 36.8456 31.6584 36.7966 31.8849 36.7539Z" fill="#FFF4C7"/>
<path d="M14.5546 43.6014L13.9944 45.5113L20.1286 42.5087C19.5318 42.4053 18.7828 42.1531 18.0161 41.8042L14.5546 43.6014Z" fill="#FFD41F"/>
<path d="M14.5546 43.6014L13.9944 45.5113L20.1286 42.5087C19.5318 42.4053 18.7828 42.1531 18.0161 41.8042L14.5546 43.6014Z" fill="#F9CA06"/>
<path d="M21.2396 40.1309C22.0271 40.4167 22.8279 40.6437 23.6182 40.8006L26.3564 39.4602C25.6727 39.2577 24.9188 38.9728 24.136 38.627L21.2396 40.1309Z" fill="#FFD41F"/>
<path d="M21.2396 40.1309C22.0271 40.4167 22.8279 40.6437 23.6182 40.8006L26.3564 39.4602C25.6727 39.2577 24.9188 38.9728 24.136 38.627L21.2396 40.1309Z" fill="#F9CA06"/>
<path d="M29.2086 35.9938L24.1369 38.627C24.9197 38.9728 25.6735 39.2577 26.3573 39.4602L31.8845 36.7538C31.6579 36.7966 30.8592 36.8455 29.2086 35.9938Z" fill="#FFA022"/>
<path d="M29.2086 35.9938L24.1369 38.627C24.9197 38.9728 25.6735 39.2577 26.3573 39.4602L31.8845 36.7538C31.6579 36.7966 30.8592 36.8455 29.2086 35.9938Z" fill="#22C55E"/>
<path d="M18.016 41.8041C18.7827 42.1531 19.5317 42.4053 20.1284 42.5087L20.129 42.5081L23.6171 40.8006C22.8268 40.6437 22.026 40.4168 21.2386 40.1309L18.016 41.8041Z" fill="#FFA022"/>
<path d="M18.016 41.8041C18.7827 42.1531 19.5317 42.4053 20.1284 42.5087L20.129 42.5081L23.6171 40.8006C22.8268 40.6437 22.026 40.4168 21.2386 40.1309L18.016 41.8041Z" fill="#22C55E"/>
<g opacity="0.83059">
<path d="M25.6371 24.2962L25.8403 24.7064L26.2934 24.7715L25.9661 25.0915L26.0441 25.5426L25.6386 25.3302L25.2337 25.5438L25.3104 25.0925L24.9821 24.7735L25.4351 24.707L25.6371 24.2962Z" fill="#22C55E"/>
</g>
<g opacity="0.896665">
<path d="M21.2868 21.49L21.574 21.5831L21.8128 21.3997L21.8137 21.7012L22.0627 21.8722L21.7762 21.9654L21.6912 22.2545L21.5132 22.0106L21.2117 22.0183L21.3882 21.7743L21.2868 21.49Z" fill="#22C55E"/>
</g>
</g>
</g>
<defs>
<clipPath id="clip0_1_14633">
<rect width="50" height="50" fill="white"/>
</clipPath>
</defs>
</svg>
