<svg width="59" height="59" viewBox="0 0 59 59" fill="none" xmlns="http://www.w3.org/2000/svg">
<circle cx="29.5" cy="29.5" r="29.5" fill="#EAEAEA"/>
<path d="M27.9096 37.67C27.7196 37.67 27.5296 37.6 27.3796 37.45C27.0896 37.16 27.0896 36.68 27.3796 36.39L33.8996 29.87C34.3796 29.39 34.3796 28.61 33.8996 28.13L27.3796 21.61C27.0896 21.32 27.0896 20.84 27.3796 20.55C27.6696 20.26 28.1496 20.26 28.4396 20.55L34.9596 27.07C35.4696 27.58 35.7596 28.27 35.7596 29C35.7596 29.73 35.4796 30.42 34.9596 30.93L28.4396 37.45C28.2896 37.59 28.0996 37.67 27.9096 37.67Z" fill="#101828"/>
</svg>
