<svg width="260" height="234" viewBox="0 0 260 234" fill="none" xmlns="http://www.w3.org/2000/svg">
<mask id="mask0_1_14554" style="mask-type:luminance" maskUnits="userSpaceOnUse" x="0" y="0" width="260" height="234">
<path d="M260 0H0V233.216H260V0Z" fill="white"/>
</mask>
<g mask="url(#mask0_1_14554)">
<mask id="mask1_1_14554" style="mask-type:luminance" maskUnits="userSpaceOnUse" x="-71" y="-35" width="1131" height="1254">
<path d="M-70.5576 -34.623H1059.27V1218.67H-70.5576V-34.623Z" fill="white"/>
</mask>
<g mask="url(#mask1_1_14554)">
<g opacity="0.5">
<path d="M36.3994 116.002L158.612 45.7837L36.3994 116.002Z" fill="white"/>
<path d="M36.3994 116.002L158.612 45.7837" stroke="#DCFCE7" stroke-width="30.0548" stroke-linecap="round"/>
</g>
<g opacity="0.5">
<path d="M65.4707 162.058L187.684 91.8389L65.4707 162.058Z" fill="white"/>
<path d="M65.4707 162.058L187.684 91.8389" stroke="#DCFCE7" stroke-width="30.0548" stroke-linecap="round"/>
</g>
<g opacity="0.5">
<path d="M218.986 74.1934L228.511 68.6487L218.986 74.1934Z" fill="white"/>
<path d="M218.986 74.1934L228.511 68.6487" stroke="#DCFCE7" stroke-width="30.0548" stroke-linecap="round"/>
</g>
<g opacity="0.5">
<path d="M108.595 199.947L201.411 145.733L108.595 199.947Z" fill="white"/>
<path d="M108.595 199.947L201.411 145.733" stroke="#DCFCE7" stroke-width="30.0548" stroke-linecap="round"/>
</g>
<path d="M224.606 149.466C226.095 149.597 227.197 150.912 227.066 152.401C226.935 153.89 225.62 154.992 224.132 154.861C222.643 154.73 221.54 153.415 221.671 151.926C221.802 150.438 223.117 149.335 224.606 149.466Z" stroke="#22C55E" stroke-width="1.39915"/>
<path d="M67.565 207.279C70.0133 207.495 71.8263 209.657 71.6111 212.105C71.3959 214.554 69.2333 216.367 66.785 216.152C64.3367 215.936 62.5237 213.774 62.7389 211.326C62.9542 208.877 65.1167 207.064 67.565 207.279Z" stroke="#22C55E" stroke-width="2.3008"/>
<path d="M126.893 23.7125C129.341 23.9277 131.154 26.0903 130.939 28.5386C130.724 30.9869 128.561 32.7999 126.113 32.5847C123.665 32.3695 121.852 30.2069 122.067 27.7586C122.282 25.3103 124.445 23.4973 126.893 23.7125Z" stroke="#22C55E" stroke-width="2.3008"/>
<path d="M25.3958 81.6257C26.5186 81.6257 27.4302 82.5374 27.4302 83.6602C27.4302 84.783 26.5186 85.6946 25.3958 85.6946C24.273 85.6946 23.3613 84.783 23.3613 83.6602C23.3613 82.5374 24.273 81.6257 25.3958 81.6257Z" stroke="#22C55E" stroke-width="1.6818"/>
<path d="M183.4 214.296C184.522 214.296 185.434 215.207 185.434 216.33C185.434 217.453 184.522 218.365 183.4 218.365C182.277 218.365 181.365 217.453 181.365 216.33C181.365 215.207 182.277 214.296 183.4 214.296Z" stroke="#22C55E" stroke-width="1.6818"/>
<path d="M207.829 23.1741L207.702 15.0092" stroke="#22C55E" stroke-width="0.9799"/>
<path d="M203.823 19.1694L211.988 19.0426" stroke="#22C55E" stroke-width="0.9799"/>
<path d="M34.916 156.433L34.3788 148.285" stroke="#22C55E" stroke-width="0.9799"/>
<path d="M30.71 152.635L38.8581 152.098" stroke="#22C55E" stroke-width="0.9799"/>
<path d="M204.792 191.673L203.555 183.601" stroke="#22C55E" stroke-width="0.9799"/>
<path d="M200.279 188.251L208.351 187.013" stroke="#22C55E" stroke-width="0.9799"/>
</g>
<path d="M130.025 57.9058C162.428 57.9058 188.737 84.2148 188.737 116.618C188.737 149.022 162.428 175.331 130.025 175.331C97.6215 175.331 71.3125 149.022 71.3125 116.618C71.3125 84.2148 97.6215 57.9058 130.025 57.9058Z" fill="#22C55E"/>
<path d="M130.016 63.4585C159.355 63.4585 183.175 87.2792 183.175 116.618C183.175 145.957 159.355 169.777 130.016 169.777C100.677 169.777 76.8564 145.957 76.8564 116.618C76.8564 87.2792 100.677 63.4585 130.016 63.4585Z" fill="#22C55E"/>
<path d="M105.999 118.568L120.371 132.613L154.014 98.9697" stroke="white" stroke-width="5.8794"/>
</g>
</svg>
